<?xml version="1.0" encoding="UTF-8"?>
<svg id="Layer_1" data-name="Layer 1" xmlns="http://www.w3.org/2000/svg" viewBox="0 0 1438.94 583.75">
  <defs>
    <style>
      .cls-1 {
        fill: #010101;
      }

      .cls-2 {
        fill: #fdb515;
      }

      .cls-3 {
        fill: #fba919;
      }

      .cls-4 {
        fill: #fffef1;
      }

      .cls-5 {
        fill: #fffef5;
      }

      .cls-6 {
        fill: #fff6e7;
      }

      .cls-7 {
        fill: #fffbf2;
      }

      .cls-8 {
        fill: #fbaa19;
      }

      .cls-9 {
        fill: #fffffd;
      }

      .cls-10 {
        fill: #faf183;
      }

      .cls-11 {
        fill: #fff8e9;
      }

      .cls-12 {
        fill: #fbac18;
      }

      .cls-13 {
        fill: #fffbef;
      }

      .cls-14 {
        fill: #f7911e;
      }

      .cls-15 {
        fill: #fff7e8;
      }

      .cls-16 {
        fill: #faa819;
      }
    </style>
  </defs>
  <path class="cls-8" d="M117.06,137.42c.36.27.72.54,1.09.81,1.22,1.03,2.15,2.13,3.13,3.38q1.32,1.69,2.85,3.19c1.14,1.32,1.32,2.38,1.66,4.09.06.3.12.6.19.92.2.98.39,1.97.57,2.95.13.68.27,1.36.4,2.04,1.02,5.16,1.92,10.33,2.72,15.53.12.69.26,1.38.42,2.06.84,3.49.77,7.01.8,10.58.08,8.87.48,17.73.98,26.58.08,1.34.15,2.68.22,4.01.08,1.59.17,3.19.27,4.78.05.88.09,1.75.14,2.63.03.53.07,1.06.1,1.6.03.46.05.92.08,1.39q.21,1.38,1.17,2.61c1.04,1.59,1.08,2.44,1.06,4.33,0,.29,0,.57,0,.87,0,.94-.02,1.88-.04,2.83,0,.67-.01,1.33-.01,2-.01,1.76-.03,3.51-.06,5.27-.04,3.12-.07,6.23-.09,9.35q0,.5,0,1.02c-.03,4.32.11,8.56.58,12.86.48,4.47.49,8.95.54,13.45.03,2.66.07,5.32.12,7.98,0,.53.02,1.07.03,1.62.21,11.62.72,23.2,2.04,34.75q.59,5.48-.18,8.06c-.72,2.77-.57,5.61-.56,8.45,0,.63,0,1.26,0,1.89,0,1.32,0,2.64,0,3.96,0,1.65,0,3.31,0,4.96-.03,12.63,1.01,25.02,2.5,37.56,1.68,14.19,2.17,28.19,2.17,42.46,0,1.85,0,3.69,0,5.54,0,4.36,0,8.73,0,13.09,0,4.46,0,8.91.01,13.37,0,3.87.01,7.74,0,11.61,0,2.29,0,4.58,0,6.88q.09,36.8-9.88,47.39c-1.71,1.55-3.49,2.99-5.3,4.41-.4.32-.8.65-1.21.98-1.06.86-2.13,1.7-3.2,2.55q-.42.35-.85.71c-1.2.95-2.14,1.48-3.65,1.77-3.88-.64-7.77-2.39-10.57-5.19-7.75-11.88-9.29-29.83-9.94-43.66-.11-2.3-.31-4.53-.66-6.8-1.04-7.69-.67-15.06,1.49-22.5.34-1.17.65-2.35.96-3.53,1.04-3.91,2.25-7.6,3.95-11.28,1.09-2.39,1.9-4.82,2.65-7.33.11-.37.22-.74.34-1.11,1.09-3.74,1.36-7.31,1.38-11.19q.01-.66.03-1.34c.01-2.78-.38-4.75-1.46-7.3v-3.09c-.73-3.11-2.27-4.76-4.77-6.7-2.36-1.34-4.73-2.02-7.47-1.57-3.84,1.24-7.95,3.91-10.22,7.3-1.6,4.54-1.06,9.86.74,14.29.81,1.57,1.61,2.56,3.17,3.45.59.14,1.17.27,1.77.39,2.02.42,2.72,1.53,3.97,3.15q1.39.83,2.65,1.32c-.25,2.9-.99,5.41-1.97,8.15-.15.44-.3.88-.46,1.33-.64,1.86-1.3,3.71-1.95,5.57q-3.92,11.01-5.14,22.56c0,.55,0,1.09.01,1.65.22,13,2.11,26.11,4.8,38.81.25,1.2.49,2.4.71,3.61,1.58,8.21,4.32,16.29,8.86,23.34q.87,1.37,1.31,2.69c-.4.17-.8.34-1.22.52-6.78,2.92-13.42,6.11-20.01,9.44-1.06.53-2.13,1.02-3.22,1.49-1.86.8-3.66,1.71-5.46,2.62-2.28,1.15-4.57,2.29-6.87,3.39-.45.22-.91.44-1.37.66q-1.14.41-2.46-.03c.2-.24.39-.47.6-.72,3.82-4.95,4.91-10.66,5.48-16.77.07-.71.14-1.43.21-2.14.65-6.6.95-13.15,1.05-19.78.02-.9.03-1.81.05-2.71.05-2.59.08-5.18.11-7.77,0-.4.01-.8.02-1.21.01-1.13.02-2.26.03-3.39q0-.49.01-.99c.02-7.15-2.27-13.7-5.11-20.18-.67-1.56-1.29-3.13-1.9-4.71-2.35-5.94-4.95-11.71-8.67-16.92-1.7-2.46-2.78-5.09-3.87-7.86-1.01-2.54-2.19-4.69-3.79-6.92q-.55-.94-.55-2.71.34-.15.69-.31c4.6-2.15,7.36-5.92,9.12-10.6,1.25-3.78,1.06-7.8-.11-11.61-1.67-3.28-4.12-4.61-7.5-5.74-3.1-.31-5.84-.18-8.39,1.77-1.17,1.3-1.57,2.42-1.96,4.11-.55,2.16-1.29,3.71-2.46,5.6-1.6,3.43-1.86,6.28-1.88,10.01,0,.42-.02.83-.03,1.26-.02,4.22,1.08,7.54,3.04,11.24.49,1.03.88,2,1.26,3.07,2.16,6.18,5.42,11.53,9.82,16.4,5.75,6.47,8.15,16.66,10.74,24.72.13.4.26.8.39,1.21,1.11,3.53,1.45,6.74,1.45,10.43,0,.45,0,.9,0,1.37,0,1.47,0,2.93,0,4.4,0,.5,0,1,0,1.51-.02,12.99-.36,24.61-5.4,36.71-.78,1.9-1.42,3.82-2.02,5.79-.86,2.65-1.9,4.42-3.7,6.51-.37.48-.73.96-1.09,1.44-.19.26-.39.52-.59.78-.38.51-.77,1.03-1.15,1.54-1.61,2.12-3.17,3.28-5.57,4.38-.43.2-.86.4-1.31.6q-.69.31-1.39.63c-.47.22-.94.43-1.43.66-2.86,1.3-5.74,2.45-8.7,3.51-2.62.95-4.47,1.94-6.07,4.29q-.53.71-1.85,1.15c-.72.04-1.44.05-2.16.04-.41,0-.83,0-1.25,0-.43,0-.86,0-1.31-.01-.44,0-.87,0-1.32,0-1.08,0-2.15-.01-3.23-.02-.08-.43-.15-.87-.23-1.32-1.02-5.23-3.03-9.71-5.47-14.43-1.25-2.71-1.49-4.97-1.48-7.91q0-.63,0-1.28c0-1.42,0-2.83,0-4.25,0-1.02,0-2.03-.01-3.05,0-2.19-.01-4.38-.02-6.57,0-3.47-.02-6.95-.03-10.42-.02-4.88-.03-9.76-.04-14.65,0-.31,0-.62,0-.94q0-.47,0-.94c0-4.37-.02-8.75-.03-13.12,0-.31,0-.61,0-.93-.01-5.15-.03-10.29-.05-15.44-.01-3.44-.02-6.89-.03-10.33,0-2.16-.01-4.32-.02-6.48,0-.99,0-1.98,0-2.97,0-5.2-.08-10.4-.27-15.6-.02-.47-.03-.93-.05-1.42q-.13-6.67-1.53-13.13c-.44-1.41-.53-2.47-.51-3.94,0-.5,0-1.01.01-1.52,0-.55.02-1.1.03-1.67,0-.6.02-1.19.02-1.79.02-1.64.05-3.28.08-4.92.02-1.04.03-2.09.05-3.13.2-12.85.54-25.7.92-38.55.04-1.44.08-2.88.12-4.32.26-8.97.53-17.94,1.06-26.91.02-.3.04-.61.05-.92.15-2.56.32-5.11.59-7.66.22-2.14.34-4.28.43-6.43q.02-.58.05-1.18c.05-1.28.11-2.56.16-3.84.04-.91.08-1.82.11-2.73.08-1.92.16-3.83.24-5.75.1-2.4.2-4.8.3-7.19.42-9.96.8-19.92,1-29.89.14-6.71.37-13.46,1.31-20.11,1.05-7.51,1.67-15.04,2.27-22.6.32-4.08.66-8.15,1-12.23.03-.42.07-.84.11-1.27.83-9.98,1.75-19.96,2.7-29.93.08-.82.16-1.65.23-2.47.22-2.31.44-4.62.66-6.93q.05-.52.1-1.05.57-5.98.87-8.59c.16-1.41.25-2.79.26-4.21,0-.4.01-.8.02-1.21q-.03-1.17-.98-2.38c.13-2.14.91-3.89,1.88-5.77q.23-.45.46-.91c4.49-8.63,8.99-15.69,17.51-20.61.86-.5,1.71-1.02,2.56-1.54.52-.31,1.05-.63,1.57-.94.45-.27.91-.55,1.37-.83,8.22-3.89,19.13-4.62,28.06-3.84.98.98.64,3.28.69,4.64.02.45.04.91.06,1.37.17,4.79.19,9.59.19,14.38,0,.39,0,.78,0,1.18,0,4.01-.04,7.97-.4,11.97-.18,2.42-.19,4.84-.18,7.27q0,.82,0,1.66c.02,4.5.27,8.97.65,13.46.84,10.53-.06,20.89-1.11,31.36-.72,7.25-1.35,14.45-1.35,21.74,0,.55,0,1.11,0,1.68.03,3.72.38,7.29,1.16,10.93.27,1.43.34,2.71.29,4.16.44-.15.87-.29,1.32-.44-.02.34-.03.67-.05,1.02-.01.44-.02.88-.04,1.33-.02.44-.03.87-.05,1.32q.02,1.21.8,2.01c.22.17.43.33.66.51,1.34-.4,2.04-.62,2.79-1.83,1.69-4.9,1.67-9.96,1.83-15.1.03-1.03.07-2.07.1-3.1.02-.53.03-1.06.05-1.61.24-7.49.5-14.97,1.02-22.45.39-5.6.46-11.17.39-16.78,0-.3,0-.6,0-.92,0-.81-.02-1.63-.03-2.44.03-1.39.18-2.73.37-4.11.21-1.92.2-3.85.23-5.77q.01-.69.02-1.39c.03-1.47.05-2.93.07-4.4.09-5.54.19-11.07.44-16.6.19-4.15.28-8.29.33-12.45q0-.45.01-.9c.03-2.76.07-5.52.09-8.28.01-1.24.02-2.47.04-3.71.01-1.15.03-2.3.03-3.45q.01-.77.02-1.56c0-.45,0-.9.01-1.37q.12-1.13,1-2.45c1.23-.36,2.42-.66,3.67-.94,3.35-.8,6.39-1.92,9.52-3.34,8.36-3.75,17.72-3.89,25.22,2.07Z"/>
  <path class="cls-8" d="M1383.43,127.35c1.01.37,2.02.73,3.03,1.1,4.22,1.54,7.89,3.36,11.63,5.89.36.24.72.48,1.09.73.65.44,1.3.88,1.95,1.32.94.61,1.9,1.13,2.89,1.65,2.37,1.29,4.38,2.94,6.43,4.69.4.34.8.67,1.22,1.02,3.01,2.62,5.31,5.45,7.61,8.69.39.52.78,1.04,1.17,1.56,10.3,13.7,13.97,25.99,15.31,42.95.3,3.69.67,7.35,1.27,11,1.41,8.67,2,17.03,1.9,25.81-.01.99-.02,1.98-.02,2.97-.04,9.15-.29,18.24-1.37,27.33-.43,3.67-.64,7.32-.71,11.01-.13,6.91-.63,13.77-1.22,20.65-.81,9.57-1.15,19.1-1.26,28.71-.04,2.68-.17,5.35-.35,8.02-.14,2.13-.21,4.26-.24,6.39-.11,7.43-.46,14.79-1.19,22.18-.04.37-.07.73-.11,1.11-.44,4.45-1,8.87-1.73,13.28-.44,2.71-.48,5.24-.29,7.98q-.13,1.21-.89,2.24c-1.59,1.18-3.03,1.26-4.97,1.18-3.01-.82-5.16-2.87-7.5-4.86-.3-.24-.6-.47-.91-.72-4.97-4.03-8.8-9.96-11.01-15.91-.42-1-.91-1.76-1.54-2.63-1.57-2.4-2.02-5.2-2.63-7.96-.43-1.9-.88-3.79-1.34-5.67-.08-.36-.17-.73-.25-1.1-.5-2.08-1.19-3.84-2.18-5.74-2.95-6.06-2.78-13.1-2.71-19.67,0-.85,0-1.7.01-2.55,0-1.81.02-3.62.04-5.43.02-2.83.04-5.66.05-8.49.02-4.4.06-8.81.1-13.21.02-2.5.04-5.01.06-7.51q.14-20.38.95-29.78c.19-2.24.25-4.47.26-6.72.04-4.19.41-6.46,3.46-9.5,1.75-2.75,2.35-5.61,1.77-8.83-.92-2.39-2.12-4.31-4.39-5.57-2.35-.94-4.34-.94-6.68.06-3.21,1.76-4.65,4.8-5.71,8.17-.58,2.05-.7,4.17-.22,6.26.91,5.05.31,10.53-.24,15.59-1.04,9.69-1.1,19.36-1.15,29.09-.01,2.23-.03,4.46-.05,6.7-.03,3.87-.06,7.74-.07,11.61-.01,2.31-.02,4.61-.04,6.92-.01,1.36-.02,2.73-.02,4.09,0,.9-.01,1.8-.02,2.7-.03,8.72,1.63,17.28,3.22,25.83.71,3.86,1.24,7.72,1.73,11.62,1.14,8.84,3.21,15.88,8.18,23.4,1.16,1.76,2.2,3.55,3.21,5.41,5.17,9.24,13.18,14.71,21.76,20.53.38.26.76.51,1.15.78.73.5,1.47.99,2.2,1.48q.5.34,1.01.68c.29.2.59.39.89.6q2.51,1.9,2.84,3.48,0,.6,0,1.22c0,.46,0,.92.01,1.4,0,.5,0,1-.01,1.52,0,.53,0,1.05.01,1.6,0,1.43.01,2.87.01,4.3,0,2.73.04,5.46.07,8.19q0,.46.01.93c.07,5.85.39,11.66.8,17.5.94,13.49,1.82,27.49-.69,40.86-.07.39-.14.79-.21,1.19q-1.64,9-4.61,11.52c-.3.26-.59.52-.89.78-1.78,1.24-3.63,1.24-5.75,1.07-2.43-.81-4.23-2.28-6.1-3.98-4.4-3.99-9.21-7.62-14.07-11.03-1.69-1.2-3.06-2.48-4.47-4-2.99-3.09-6.7-4.66-10.7-6.07-3.03-1.17-5.44-3.34-7.92-5.38-.27-.22-.54-.44-.82-.67-.28-.23-.55-.46-.84-.69-5.98-4.91-12.23-9.38-18.63-13.73-5.37-3.66-10.64-7.42-15.86-11.29-2.34-1.73-4.7-3.42-7.08-5.09-3.44-2.41-6.82-4.88-10.11-7.48-3.42-2.69-6.98-5.13-10.59-7.57-2.65-1.79-5.19-3.66-7.68-5.66-3.5-2.81-7.26-5.26-10.99-7.74-2.63-1.75-5.25-3.5-7.86-5.27-.34-.23-.69-.46-1.04-.7-2.03-1.38-3.87-2.84-5.65-4.53-1.2-.93-2.46-1.24-3.9-1.64-1.4-.51-2.2-1.39-3.11-2.54v-.88q-.83.05-1.68.11-1.73,0-2.7-.91c-2.23-4.6-.21-11.94.31-16.86.33-3.12.63-6.23.89-9.36.03-.34.06-.68.09-1.04.14-1.67.27-3.34.41-5,.27-3.29.63-6.54,1.17-9.81.23-1.48.37-2.96.5-4.45.29-3.45.88-6.59,1.93-9.9.71-2.52,1-5.08,1.3-7.67.44.15.87.29,1.32.44.32,1.02.61,2.05.88,3.09,1.5,1.5,3.5,1.25,5.55,1.37,2-.07,2.72-.49,4.17-1.82h.88c.03-.26.06-.52.09-.79.49-1.36,1.21-1.69,2.42-2.47,4.27-2.97,7.83-6.83,11.19-10.79,2.8-3.13,5.82-6.16,9.03-8.86,1.69-1.43,2.95-3.09,4.19-4.91-.44-.29-.87-.58-1.32-.88.26-1.74,1.13-2.75,2.23-4.08.32-.39.65-.79.98-1.19q.37-.45.76-.9.44,1.32.44,2.21c1.28-2.03,2.55-4.06,3.81-6.1.53-.85,1.07-1.7,1.61-2.55,3.04-4.85,5.41-10,7.82-15.19.28-.6.57-1.2.85-1.8.61-1.31,1.22-2.61,1.8-3.94.23-.51.46-1.01.7-1.53.97-2.63.94-5.41,1.06-8.18.06-1.22.13-2.44.2-3.66.02-.31.04-.63.05-.95.24-4.08.66-8.15,1.08-12.22.74-7.4.87-13.49-3.92-19.6q-2.86-3.27-6.69-5.05c-2.05.03-3.39.17-5.02,1.43-2.26,2.36-2.21,4.65-2.15,7.79.18,2.25.86,3.44,2.43,5.01,1.39.89,2.72,1.23,4.3,1.66.71,1.42.4,2.95.3,4.5-.02.38-.04.76-.06,1.15-.08,1.35-.16,2.71-.24,4.06-.03.55-.06,1.09-.1,1.66-.09,1.49-.17,2.97-.26,4.46-.05.87-.1,1.74-.15,2.61-.43,6.87-1.64,12.9-3.72,19.43-.4,1.27-.8,2.54-1.19,3.81-.25.81-.51,1.62-.76,2.43-.12.38-.24.75-.36,1.14-.11.35-.22.7-.34,1.06-.1.31-.19.61-.29.93-.7,1.92-1.13,2.64-2.97,3.52q-.56.71-.98,1.58-.26.48-.52.97c-.18.34-.36.69-.54,1.04-.39.73-.78,1.45-1.17,2.17-.2.37-.4.73-.6,1.11-4.5,8.13-9.96,15.29-17.14,21.22-.76.69-1.41,1.42-2.08,2.2-3.28,3.83-6.91,7.9-11.39,10.32h-1.32v-4.86c-.73-.15-1.46-.29-2.21-.44,0-.5.02-1,.03-1.52q.16-1.49-.47-2.01l-.88.88c-.01-5.43-.02-10.85-.02-16.28,0-2.52,0-5.04-.01-7.56,0-2.44,0-4.87,0-7.31,0-.93,0-1.85,0-2.78-.01-4.34-.01-8.63.38-12.96.18-2.06.21-4.12.25-6.18,0-.45.02-.9.03-1.37.03-1.46.06-2.93.08-4.39,0-.51.02-1.01.03-1.53.13-6.71.19-13.41.16-20.13q-.08-28.68,2.85-41.58c.69-3.09,1.12-6.21,1.54-9.35,1.59-11.49,3.81-20.27,10.49-29.78.58-.83,1.14-1.66,1.71-2.49,1.99-2.91,3.96-5.47,6.81-7.59.37-.28.75-.56,1.13-.85.88-.65,1.76-1.31,2.64-1.96,1.78-1.34,3.48-2.77,5.2-4.2,1.28-1.05,2.55-2.1,3.83-3.15.26-.22.52-.43.79-.65,6.96-5.68,15.87-10.76,24.81-12.15.88-.16,1.76-.31,2.64-.47,5.48-.94,10.88-1.52,16.44-1.66,1.75-.05,3.47-.21,5.21-.42,7.68-.91,15.7,1.29,22.85,3.95ZM1314.22,302.07l.44.88-.44-.88Z"/>
  <path class="cls-15" d="M225.82,122.91c.33.1.67.19,1.01.29q11.98,3.51,16.04,6.72c.51.37,1.03.74,1.55,1.11,2.56,1.82,5.03,3.65,7.31,5.82,1.56,1.47,3.05,2.39,4.97,3.34,6.81,3.53,12.6,10.63,17,16.83.53.73,1.09,1.44,1.65,2.15,5.39,7.07,7.53,16.51,8.83,25.17.2,1.26.43,2.5.67,3.75,1.55,8.83,1.53,17.69,1.58,26.63,0,.54,0,1.07.01,1.62,0,1.01.01,2.01,0,3.02.02,2.95.3,5.77.8,8.68.67,4.06.21,8.01-.41,12.04-2,13.27-1.82,27-2.04,40.39,0,.31-.01.62-.02.93-.09,5.58-.13,11.09.53,16.64.36,3.19.53,6.38.68,9.58.38,7.94.96,15.87,1.58,23.79.07.91.14,1.81.21,2.72.7,9.11,1.57,18.2,2.58,27.28.36,3.24.68,6.47.85,9.72.02.34.04.68.06,1.03.22,4.16.29,8.33.36,12.49.07,4.12.28,8.19.68,12.3.53,5.55.57,11.07.55,16.64,0,1.68,0,3.35,0,5.03,0,6.55-.27,13.02-.89,19.54-.15,1.7-.28,3.4-.41,5.11-.54,6.82-2.12,11.07-7.46,15.63-.71.57-1.43,1.14-2.16,1.69q-1.08.81-1.81,1.51c-2,1.84-3.97,2.8-6.49,3.76-2.84,1.13-5.37,2.35-7.91,4.07-7.07,4.6-15.06,7.8-23.2,9.91-2.66.77-5.14,2.07-7.63,3.27,0-.41,0-.83,0-1.25q.19-22.99-1.65-45.87c-.54-4.2-.74-8.36-.84-12.58-.02-.71-.04-1.42-.06-2.13-.04-1.48-.07-2.96-.11-4.44-.04-1.86-.09-3.71-.14-5.57-.12-4.59-.22-9.19-.3-13.78,0-.32-.01-.64-.02-.98-.03-2.08-.06-4.17-.07-6.25,0-.51-.01-1.02-.02-1.55,0-3.92.6-7.1,2.31-10.64q.26-.55.52-1.11c.4-.81.82-1.62,1.24-2.42,1.2-3.97.21-7.74-1.32-11.48-1.89-3.44-4.05-5.77-7.7-7.23-2.46-.43-4.24-.24-6.51.83-1.4,1.24-2.04,2.41-2.88,4.06-.57,1.02-1.19,1.79-1.98,2.65-1.99,2.24-2.32,4.45-2.23,7.39.38,4.22,2.47,6.59,5.4,9.52q.38.27.78.54c1.52,1.18,2.23,2.07,2.58,3.99.08,1.85.06,3.67,0,5.51,0,.69-.02,1.39-.02,2.08-.01,1.47-.04,2.93-.07,4.39-.07,3.4-.09,6.8-.12,10.2,0,1.11-.02,2.23-.03,3.34-.05,5.44.04,10.85.38,16.29q.03.48.06.98c.16,2.66.37,5.32.63,7.98.97,10.35,1.32,20.83,1.1,31.22,0,.52-.02,1.05-.03,1.59-.1,5.39-.21,10.76-1.02,16.1-.05.34-.1.67-.15,1.02-.3,1.72-.57,3.06-1.89,4.25q-1.28.5-2.81.88c-5.46,1.41-10.56,3.18-15.64,5.6-.29.14-.58.27-.88.41-5.75,2.71-11.27,5.66-16.61,9.14-.79.51-1.58,1.01-2.38,1.51-2.37,1.48-4.6,3.03-6.76,4.8-2.24,1.65-5.25,1.27-7.89,1.05-2.96-.76-4.93-2.84-6.62-5.3-2.8-5.08-2.33-11.54-2.31-17.15,0-.83,0-1.66,0-2.49,0-2.24,0-4.48,0-6.73,0-2.36,0-4.72,0-7.07,0-3.96,0-7.93.01-11.89,0-4.56,0-9.12,0-13.68,0-4.88,0-9.76,0-14.64,0-1.39,0-2.79,0-4.18,0-2.21,0-4.41,0-6.62,0-.8,0-1.6,0-2.41,0-4.81.13-9.6.4-14.4.15-2.77.19-5.55.22-8.32,0-.36,0-.71.01-1.08,0-.36,0-.73.01-1.11,0-.78.02-1.56.03-2.34.02-1.62.04-3.25.05-4.87.02-2.04.05-4.09.07-6.13.06-4.94.11-9.88.15-14.82,0-.31,0-.62,0-.93.05-5.68.02-11.28-.45-16.95-1.79-25.41-.49-51.38,2.52-76.64.52-4.41.77-8.79.88-13.23.07-2.63.22-5.19.57-7.8.44-3.29.61-6.55.69-9.87.07-2.17.23-4.29.52-6.44.82-6.23.62-12.49.55-18.76q-.14-13.46.66-18.28c.41-2.78.47-5.58.59-8.38.65-14.67,2.65-27.59,9.56-40.7.94-1.82,1.68-3.53,2.22-5.51.55-1.95,1.29-3.14,2.73-4.61.21-.21.41-.43.63-.65.71-.72,1.43-1.43,2.16-2.14q.43-.42.86-.84c7.43-7.19,13.75-10.6,23.86-12.85.41-.09.81-.18,1.23-.28,1.22-.27,2.45-.52,3.68-.77.37-.08.74-.16,1.12-.24,3.95-.77,7.52-.21,11.35.9ZM210.98,196.13c-2.22,2.76-2.29,6.61-2.21,10.03.22,1.98,1.03,3.51,2.16,5.15,1.49,2.84,1.12,6.59,1.14,9.73.01.89.03,1.78.04,2.67.02,1.38.03,2.75.05,4.13.05,5.63.38,11.07,1.3,16.64.48,3.02.45,5.99.29,9.04q-.04.69-.07,1.39-1.05,19.29-5.65,23.82c-2.04,1.69-4.27,1.95-6.83,2.32-.45.07-.9.14-1.36.22-1.1.18-2.2.34-3.3.5-2.27-3.31-2.73-5.78-2.7-9.79,0-.31,0-.63,0-.95,0-1.39.06-2.49.5-3.82.45.02.89.04,1.36.06.6.02,1.19.03,1.79.05q.44.02.89.04c2.26.04,3.51-.47,5.24-1.92.88-1.86.99-2.73.41-4.72-1.44-2.47-3.02-3.34-5.71-4.11-3.76-.45-7.1-.18-10.15,2.21-3.8,4.23-4.05,9.54-4.06,14.95,0,.37-.01.74-.02,1.12-.01,4.48,1,8.21,2.86,12.27.16.38.33.75.49,1.14,1.61,3.55,3.64,6.54,7.34,8.05,3.48,1.15,7.44,1.58,10.9.19,3.43-1.75,5.86-4.57,8.36-7.43,1.07-1.18,2.2-2.26,3.36-3.36,1.77-1.74,2.9-3.41,3.89-5.68q.41-.94,1.3-2.26c.21.34.42.67.63,1.02,3.18,4.97,6.44,8.92,12.17,10.9,5.61,1.18,10.92,1.51,16-1.43,3.42-2.32,5.42-5.5,6.36-9.51.87-4.81,1.08-9.67,1.17-14.55.01-.39.03-.77.04-1.17.03-3.36-.93-6.08-2.94-8.79-2-1.95-3.96-3.03-6.79-3.17-2.46.12-3.84,1.27-5.57,2.95-1.16,1.87-1.92,3.89-1.47,6.11.62,1.6,1.33,2.82,2.91,3.52,1.03-.12,2.06-.27,3.09-.44-.19,1.54-.38,3.07-.58,4.61-.05.43-.1.86-.16,1.3q-.88,6.74-2.35,8.22c-3.11.33-5.88.23-8.39-1.77-1.31-1.38-2.45-2.85-3.53-4.41-.18-.25-.36-.51-.55-.77-1.57-2.32-2.31-4.61-2.98-7.31-.22-.87-.45-1.75-.67-2.62-.11-.43-.22-.86-.33-1.31-.29-1.09-.6-2.17-.94-3.25-2.77-9.12-3.03-18.98-3.19-28.46-.06-3.12-.37-6.11-.85-9.2-.66-4.51-.63-8.14,2-11.98.91-2.73.93-5.98-.3-8.61-1.19-2.02-2.84-3.3-4.99-4.19-3.79-.41-6.62-.11-9.38,2.65Z"/>
  <path class="cls-12" d="M337.59,121.02c2.73-.11,5.37.38,8.05.83,3.81.63,7.64,1.04,11.48,1.45q.73.08,1.47.16t1.31.14c.87.1,1.73.23,2.59.39,1.33.2,2.56.24,3.91.22.51,0,1.01-.01,1.53-.02.55,0,1.09-.01,1.65-.02q24.18-.1,33.08,3.56c.4.16.79.32,1.2.49,9.39,3.95,14.56,9.31,19.93,17.89.58.92,1.18,1.83,1.8,2.72,4.2,6.13,5.11,13.2,6.2,20.39.07.48.15.96.23,1.45,1.83,11.86,3.05,23.68,3.17,35.68.02,1.14.03,2.28.05,3.42.1,8.46.1,16.91.1,25.37,0,.55,0,1.11,0,1.68,0,5.63,0,11.26-.02,16.88-.03,11.03-.02,22.05.3,33.07.22,7.79.23,15.58.02,23.37,0,.58-.02,1.16-.03,1.76-.02.55-.03,1.1-.05,1.67-.01.49-.02.98-.04,1.48-.06.38-.13.77-.19,1.16-1.75,1.16-2.38.84-4.41.44q-.48-.04-.98-.07c-1.62-.19-2.66-.44-3.78-1.68-1.79-2.65-3.3-5.33-4.65-8.24q-.31-.65-.62-1.32c-4.11-8.84-7.3-17.27-9.15-26.84-.53-2.69-1.19-5.3-1.95-7.93-1.06-3.7-1.96-7.45-2.88-11.19-.96-3.89-2-7.74-3.19-11.57-1.84-6-2.82-12.16-3.87-18.34-.24-1.35-.49-2.7-.77-4.04-.46-2.26-.69-4.48-.83-6.78-.03-.44-.06-.88-.09-1.33-.1-2.68.19-4.66,1.28-7.1.75-1.68,1.42-3.39,2.06-5.12.13-.31.25-.63.38-.95.82-2.21.82-3.54-.11-5.81-1.05-1.2-1.67-1.31-3.26-1.55-1.98.27-2.99.94-4.25,2.43-.99,1.72-1.78,3.51-2.57,5.32-.22.48-.43.96-.65,1.46-1.61,3.61-2.16,6.2-2.16,10.13,0,.4-.01.8-.02,1.21-.01,6.46,1.32,12.76,2.72,19.04.09.38.17.77.26,1.17,1.49,6.67,3.6,12.76,6.28,19.05,2.08,5.03,3.65,10.24,4.81,15.55.38,1.75.86,3.4,1.48,5.07.68,1.92,1.07,3.78,1.39,5.79,1.66,10.49,4.74,21.54,9.65,30.99.21.43.43.87.65,1.31,1.04,2,2.21,3.86,3.49,5.72,3.19,4.63,5.7,9.58,8.22,14.6.21.41.42.82.63,1.24.2.39.4.78.6,1.19.18.35.35.7.54,1.06.76,1.59.95,2.89,1.02,4.63.02.47.04.95.06,1.44.02.5.03.99.05,1.5.02.48.04.97.06,1.46.1,2.6.15,5.18.06,7.78q.01,1.01.96,2.1c1.82,2.96.92,7.06.72,10.45-.19,3.32-.33,6.63-.39,9.95,0,.36-.01.73-.02,1.1-.03,1.47-.06,2.95-.08,4.42q-.24,15.02-4.84,19.57c-.26.23-.53.47-.8.71-.79.71-1.43,1.47-2.1,2.3-2.44,2.85-5.06,4-8.56,5.27-1.66.66-3.22,1.43-4.8,2.26-3.05,1.58-6.18,2.86-9.38,4.11-4.03,1.58-7.9,3.31-11.74,5.31-4.11,2.1-8.28,3.99-12.61,5.58-1.39.56-2.71,1.18-4.05,1.84-4.36,2.15-8.84,3.6-13.49,5.01-4.03,1.24-7.92,2.6-11.69,4.49-8.18,4.1-18.99,6.91-28.11,4.76-3.38-1.61-5.05-4.14-6.37-7.57-1.14-3.46-2.09-7.38-1.77-11.04.29-.44.58-.88.88-1.34,1.22-2.07,1.11-4.04,1.07-6.39,0-.46,0-.91,0-1.38,0-.99-.01-1.98-.03-2.97-.02-1.58-.03-3.15-.04-4.73-.02-3.36-.05-6.72-.08-10.08-.04-3.87-.07-7.74-.08-11.62-.01-1.54-.03-3.07-.05-4.61-.04-4.79.09-9.53.61-14.29.04-.43.08-.86.12-1.3.39-3.08,1.47-5.07,3.35-7.5,4.48-6.23,8.48-12.81,12.36-19.42.29-.49.58-.98.87-1.49,6.68-11.53,11.13-22.2,13.59-35.32,1.69-9.02,3.84-17.83,6.72-26.54,2.97-8.97,5.43-18.01,6.5-27.42.12-1.03.25-2.05.39-3.07,1.67-12.87,1.9-29.92-6.45-40.8q-.56-.59-1.13-1.19c-1.32-1.52-1.61-3.24-2.07-5.16-.56-2.01-1.52-3.32-3.08-4.66-2.09-.81-3.97-.29-6.07.41-.9,1.68-1.03,3.25-1.13,5.13-.08,1.51-.16,2.7-.63,4.14-.17,1.98-.25,3.8.5,5.66,1.32,1.54,2.85,2.76,4.54,3.87,1.58,1.46,2.33,3.1,3.22,5.04.17.38.35.76.53,1.15,3.44,7.71,2.45,16.34,1.51,24.54-.04.36-.08.71-.12,1.08-1.04,9.2-3.21,17.86-5.78,26.74-1.35,4.66-2.63,9.33-3.81,14.04-.08.33-.16.65-.25.99-1.42,5.68-2.6,11.39-3.66,17.14q-2.55,13.72-6.69,16.69c-.31.21-.62.42-.94.63-1.11.86-1.9,1.81-2.78,2.9-2.13,2.44-4.62,3.85-7.46,5.33-.95.5-1.88,1.03-2.81,1.57-.32.18-.64.37-.97.56-.63.36-1.25.72-1.88,1.08q-2.18,1.23-3.16,1.23c-.32-2.68-.55-5.34-.68-8.03-.02-.38-.04-.77-.06-1.16-.06-1.25-.12-2.51-.17-3.76-.02-.44-.04-.87-.06-1.32-.4-9.16-.46-18.3-.42-27.47,0-2.19.01-4.37.02-6.56.01-5.99.03-11.98.05-17.97.02-6.82.04-13.64.05-20.46,0-.44,0-.88,0-1.33.02-11.3-.1-22.56-.61-33.85-.43-9.47-.48-18.94-.47-28.42,0-1.97,0-3.93,0-5.9q-.11-27.88,3.68-36.66c.27-.72.54-1.45.8-2.18,1.56-4.21,3.08-7.8,6.26-11.07.23-.27.46-.54.69-.82,3.22-3.63,8.17-6.28,12.99-6.68q.83-.07,1.69-.14c2.17-.17,4.34-.23,6.52-.37Z"/>
  <path class="cls-15" d="M527.43,127.77c4.26.38,8.53.64,12.8.87.81.04,1.61.09,2.42.14,1.14.07,2.27.13,3.41.18q.52.03,1.04.06c1.71.08,2.42.11,3.88-.87,1.17-.09,2.28-.12,3.45-.11.31,0,.62,0,.94-.01,1.96,0,3.5.35,5.33,1,1.03-.13,2.06-.28,3.09-.44,10.29-.39,24.57-.77,33.02,5.9q.75.79,1.41,1.6.36.4.73.8c3.65,4.58,3.84,11.13,3.88,16.72,0,.45,0,.9.01,1.36,0,.43-.01.86-.02,1.3,0,.38,0,.75-.01,1.14q-.18,1.2-.85,2.68c-.73,1.79-.79,3-.74,4.92.01.65.02,1.29.03,1.94,0,.34.02.67.02,1.02.19,8.44-.08,16.95-1.77,25.25-.57,3.02-.56,6.05-.6,9.12q-.35,15.91-3.67,19.88c-3.73,3.17-9.53,2.9-14.16,3.02-6.11.17-11.96.6-17.95,1.85-2.78.58-5.55.75-8.38.81-.85.02-1.69.04-2.54.07-1.57.05-3.14.09-4.71.12-.51.02-1.01.03-1.54.05-.47,0-.95,0-1.44.01-.43,0-.85.02-1.29.03q-1.08-.26-1.84-1.1c-1.34-3.22-1.61-6.72-1.91-10.17q-.06-.6-.11-1.21c-.12-1.26-.23-2.52-.34-3.78-.11-1.27-.23-2.53-.35-3.8-.07-.78-.14-1.57-.21-2.35-.17-1.91-.4-3.78-.74-5.66q-.19-3.16.44-4.41c1.31-.56,2.64-1.05,3.98-1.54,1.98-1,3.17-2.58,3.96-4.64.3-2.13.32-3.86-.77-5.74-2.52-2.24-5.5-2.38-8.76-2.32-1.69.19-2.5.7-3.71,1.88-.72,1.28-1.24,2.6-1.77,3.97-.25.52-.49,1.04-.74,1.57-4.13,10.82-1.93,32.29,2.44,42.91,1.12,2.18,2.44,3.88,4.7,4.93,4.62,1.39,9.78.34,14.44-.35,5.74-.83,11.51-1.02,17.3-1.17.63-.02,1.25-.04,1.88-.05,2.62-.08,5.24-.15,7.86-.22,1.62-.04,3.23-.09,4.85-.14.9-.03,1.81-.05,2.71-.07,2.74-.08,5.42-.2,8.14-.61,1,1.51,1,2.05,1,3.82,0,.5,0,1.01,0,1.53,0,.54,0,1.08-.01,1.64,0,.55,0,1.1,0,1.67-.03,3.91-.26,7.76-.71,11.65-.19,1.72-.29,3.02.03,4.74q.14,1.44-.51,2.95-1.12,1.14-2.7,1.38c-.61-.02-1.21-.06-1.82-.11-.64-.03-1.27-.05-1.91-.07-.58-.02-1.16-.04-1.76-.07-2.03.1-3.97.44-5.95.87-2.66.54-5.31.7-8.01.86-4.03.27-8.02.63-12.03,1.16-.44.06-.88.11-1.34.17-1.74.22-3.47.45-5.21.68-3.58.38-7,0-10.55-.45-3.1-.36-5.79-.46-8.56,1.12-3.6,2.92-4.08,7.49-4.56,11.83-.05.51-.1,1.02-.16,1.55q-.09.74-.17,1.49c-.84,7.94-.4,15.84.3,23.77.12,1.4.24,2.81.35,4.21.08.91.15,1.82.23,2.73.03.41.07.82.1,1.25q.4,5.68,3.02,10.56c1.88,1.03,3.63.95,5.71.8.3-.01.61-.03.92-.04,2.78-.18,4.58-.9,6.5-2.91,1.85-2.58,2.35-4.85,1.88-8-.96-2.32-2.36-3.87-4.41-5.3q-1.47-.4-3.01-.55c-.51-.07-1.03-.13-1.55-.2q-.58-.06-1.18-.13c-.13-10.53.04-20.92,1.77-31.34.3-.01.59-.02.9-.03,2.74-.16,5.35-.49,8.04-1.03,11.3-2.21,22.95-2.11,34.43-2.11.46,0,.91,0,1.38,0,1.29,0,2.58,0,3.87.01.39,0,.78,0,1.18,0q2.68.02,3.17.51c.05.64.06,1.28.06,1.93,0,.43,0,.86,0,1.3q0,.73,0,1.47c0,.52,0,1.04,0,1.57-.04,7.84-.3,15.67-.55,23.51-.07,2.3-.14,4.6-.2,6.9-.05,1.8-.11,3.6-.17,5.4-.03.85-.05,1.7-.07,2.54q-.42,15.36-5.02,20.65c-.36.31-.73.62-1.1.94q-.5.43-1.02.88c-1.2.9-2.24,1.41-3.64,1.94q-.72.28-1.46.56c-.52.2-1.04.39-1.57.59-.83.32-1.66.64-2.49.96-.87.34-1.74.67-2.61,1.01q-17.04,6.23-32.53,15.47c-6.17,4.43-14.15,6.86-21.15,9.67-2.04.82-4.06,1.67-6.08,2.54-4,1.73-8.07,3.21-12.18,4.66-2.8,1-5.53,2.07-8.24,3.3-3.48,1.57-7.04,2.92-10.6,4.29-2.32.9-4.63,1.8-6.89,2.83q-5.7,2.59-8.58,1.65c-.34-.16-.68-.31-1.03-.47q-.63-.28-1.27-.57c-2.78-1.38-4.82-2.78-6.24-5.61-.07-.7-.11-1.4-.14-2.11-.02-.44-.04-.89-.06-1.34-.02-.49-.03-.97-.05-1.47q-.03-.77-.06-1.55c-.2-6-.21-12-.2-18,0-.96,0-1.91,0-2.87.01-12.96.19-25.92.49-38.88.02-.74.03-1.49.05-2.23.15-6.69.46-13.35.94-20.02.27-3.81.46-7.61.59-11.43.02-.57.04-1.15.06-1.74.16-5.05.15-10.1.12-15.15-.08-12.78.13-25.55.38-38.32.03-1.44.05-2.88.08-4.31.19-10.02.46-20.03.97-30.05.29-5.66.51-11.31.5-16.99,0-1.22,0-2.44.02-3.65,0-.79,0-1.59,0-2.38,0-.36,0-.71.01-1.08-.02-2.09-.4-3.21-1.5-4.94q-.12-1.31-.05-2.77c.02-.53.04-1.07.07-1.62.03-.56.06-1.13.09-1.71.02-.58.05-1.16.07-1.75.1-2.37.22-4.73.47-7.08.38-3.7,0-6.57-1.21-10.06-.92-2.73-1.08-5.25.22-7.9q2.5-3.05,4.31-3.74c2.22-.15,4.27.06,6.46.43q1.11.07,2.38-.41c2.07-.61,4.12-.64,6.26-.71q.65-.02,1.31-.05c.92-.03,1.85-.07,2.77-.1,2.41-.08,4.82-.17,7.22-.27.47-.02.94-.04,1.43-.05,3.58-.14,7.14-.37,10.71-.67,8.02-.63,15.97-.6,23.97.12Z"/>
  <path class="cls-15" d="M1224.94,118.72c.45,0,.89-.01,1.35-.02,2.89.02,5.32.55,8.03,1.51q.75.23,1.52.47c5.04,1.77,8.52,4.71,11.71,8.95,1,1.31,2.06,2.55,3.13,3.8,4.73,5.69,10.1,13.45,9.6,21.19-.04.46-.09.93-.14,1.41-.29,3.08-.11,6.05.14,9.13.04.46.07.92.11,1.39.2,2.36.45,4.71.77,7.06.55,4.17.61,8.26.55,12.46-.15,10.77.55,21.3,2.05,31.96q1.18,8.49-.74,11.21-1.16.55-2.21.88l-.44.88c-.22-.21-.43-.43-.65-.65-2.22-2.09-4.53-3.66-7.19-5.12-1.58-.87-3.06-1.78-4.51-2.84-7.25-5.15-15.66-8.69-24.2-11.12-3.6-1.05-7.55-2.75-10.24-5.44-.84-2.4-1.04-4.57-.44-7.06.29-.44.58-.87.88-1.32.23-2.11,0-4.12-.44-6.18.02-.5.04-1,.06-1.52-.06-1.76-.46-2.73-1.38-4.22-1.36-.68-2.47-.54-3.97-.44-2.07.77-3.18,1.71-4.41,3.53-.93,2.78-.46,5.82-.09,8.68.1,1.12.07,2.2.04,3.32-.04,5.94,1.69,10.19,5.56,14.52.79.99,1.4,2.02,2.03,3.11,1.01,1.72,1.98,3.05,3.5,4.36.24.22.49.43.74.66,4.29,3.56,10.13,4.55,15.57,4.72,3.2.24,5.34,1.73,7.97,3.45.82.5,1.65.99,2.48,1.48.85.5,1.7,1.02,2.54,1.53.98.6,1.97,1.18,2.97,1.75,3.05,1.8,4.97,3.84,7.01,6.72.6.84,1.19,1.67,1.79,2.51q.39.56.79,1.14.85,1.18,1.74,1.81c1.44,1.15,2.2,1.96,2.54,3.81.05,1.75-.02,3.47-.13,5.22-.03.68-.06,1.36-.09,2.04-.38,7.96-1.14,15.91-1.87,23.84q-.07.8-.15,1.62c-.09.99-.18,1.97-.28,2.96-.74,8-.9,16.03-1.05,24.06-.03,1.75-.07,3.5-.11,5.25,0,.3-.01.6-.02.91-.01.61-.03,1.22-.04,1.83-.09,4.06-.17,8.12-.25,12.18-.05,2.76-.11,5.53-.17,8.29-.03,1.45-.06,2.91-.09,4.36-.03,1.62-.06,3.24-.1,4.86,0,.47-.01.94-.02,1.42-.26,8.94-4.88,14.35-10.89,20.37-6.15-.23-11.24-3.43-16.35-6.54-.66-.39-1.33-.76-2.01-1.12-1.71-1.16-3.08-2.67-4.52-4.15-3.38-3.47-6.97-6.62-10.71-9.7-1.36-1.14-2.63-2.33-3.86-3.61-1.85-1.87-3.87-3.4-6.01-4.92q-7.42-5.35-10.18-7.97c-5.39-4.91-11.47-9.03-17.44-13.19-3.18-2.21-6.28-4.47-9.27-6.92-3.12-2.55-6.42-4.81-9.78-7.05-3.08-2.06-6.16-4.13-8.76-6.77-.53-.38-1.06-.76-1.6-1.13-6.15-4.62-11.45-13.31-12.97-20.94-.09-1.2-.16-2.39-.22-3.59-.02-.35-.04-.71-.05-1.07-.06-1.13-.11-2.26-.17-3.39-.07-1.47-.15-2.95-.22-4.42-.02-.37-.04-.73-.05-1.11-.11-2.24-.25-4.48-.4-6.71-.24-3.74-.34-7.48-.43-11.23-.03-1.14-.06-2.28-.08-3.42-.11-4.54-.16-9.07-.14-13.62.26-.08.53-.17.8-.25,1.81-.58,3.51-1.22,5.21-2.06,1.9-.84,2.98-.95,5.02-.33,1.82.79,3.56,1.71,5.3,2.65.31.17.63.33.95.51q7.1,3.78,10.11,6.3c.91.74,1.85,1.36,2.84,1.99,3.27,2.16,6.58,4.49,7.73,8.41.25,2.47.27,4.94.28,7.42.05,6.31.66,11.75,2.79,17.74.15.45.31.9.46,1.37.15.43.3.86.46,1.31.14.39.27.78.41,1.17.47,1.04.91,1.61,1.78,2.33,1.98.72,3.76,1.14,5.74.36,2.34-2.12,2.6-5.21,3.29-8.16.24-1.03.5-2.05.75-3.07,1.67-6.94,2.3-13.74-.51-20.48-.15-.39-.31-.78-.47-1.18-2.15-4.81-6.16-8.88-10.93-11.13-2.46-1.16-4.54-2.84-6.7-4.47-.43-.32-.87-.64-1.32-.97-3.62-2.68-7.19-5.44-10.49-8.52-1.6-1.43-3.36-2.44-5.21-3.5-8.46-4.94-11.7-15.29-14.09-24.34-2.12-10.12-.06-21.32,2.87-31.09.09-.3.18-.6.27-.91,1.63-5.39,4.52-10.06,7.47-14.82.53-.86,1.05-1.72,1.57-2.59,1.74-2.88,3.82-5.3,6.14-7.73.36-.4.73-.8,1.1-1.21,9.99-8.99,25.22-10.61,38.01-11.99,2.23-.24,4.43-.52,6.64-.92,3.58-.62,7.18-.88,10.8-1.16.37-.03.73-.06,1.11-.09,4.72-.36,9.43-.65,14.17-.69Z"/>
  <path class="cls-8" d="M657.74,131.35c4.18.35,8.36.47,12.56.58.91.02,1.82.05,2.73.07.53.01,1.06.03,1.61.04,1.26.06,2.48.16,3.73.31,2.88.3,5.76.29,8.66.3.6,0,1.2,0,1.8.02,2.52.02,5.05.04,7.57.05q13.54.04,19.23,2.06c.5.17.99.33,1.5.51,3.5,1.23,6.85,3.32,8.74,6.61.34.86.58,1.7.79,2.6q.25.74.5,1.49c.31,1.27.44,2.28.51,3.57.27,2.81,1.24,5.27,2.25,7.88,3.79,10.2,5.7,21.6,1.6,32.09-1.39,2.35-3.11,3.93-5.75,4.71-2.39.41-4.5-.33-6.59-1.42-1.08-.77-1.8-1.65-2.63-2.68-1.5-1.8-2.43-2.28-4.72-2.59-2.25-.49-4.79-1.88-6.1-3.8-.95-1.15-1.75-1.22-3.2-1.5-4.2-.96-6.93-2.32-9.41-5.96q-2.21-4.13-2.21-5.74c-.69-.21-1.38-.42-2.07-.63-.38-.12-.77-.24-1.16-.36-.39-.11-.78-.22-1.18-.33-.37-.12-.74-.23-1.12-.35q-1.12-.19-2.14.47c-2.34,2.01-3.44,3.52-3.77,6.62-.15,5.58,2.12,9.7,5.83,13.74,2.2,2.07,5.05,3.14,7.82,4.24q.47.19.94.39c1.96.8,3.94,1.56,5.93,2.3,1.12.43,2.23.88,3.34,1.34,4.1,1.67,7.94,2.91,12.34,3.48,2.45.32,4.79.83,7.16,1.52.3.09.61.17.92.26,4.26,1.29,7.5,4.35,9.65,8.21,2.29,5.16,2.8,10.03,2.54,15.62-.06,1.45-.12,2.9-.18,4.34-.04.99-.09,1.98-.14,2.97-.02.46-.04.91-.07,1.38-.02.41-.04.82-.06,1.24,0,1.05.19,1.86.45,2.87.84,13.31-.52,26.02-8.39,37.08-.26.41-.52.82-.79,1.24-.28.43-.57.85-.86,1.29-.25.39-.51.78-.77,1.18-2.81,2.88-7.15,4.02-10.85,5.39-3.83,1.45-7.6,2.96-11.34,4.64-4.76,2.13-9.54,4.18-14.35,6.21-.37.15-.73.31-1.11.47-4.4,1.85-8.81,3.65-13.29,5.31-3.17,1.18-6.24,2.54-9.32,3.92-3.33,1.46-6.71,2.73-10.13,3.96-4.75,1.71-9.31,3.61-13.67,6.18-1.46.61-2.99.83-4.54,1.08q-.52.08-1.06.17-11.2,1.72-14.31-.42c-.56-1.1-.95-2.18-1.32-3.35q-.4-1.22-1.88-2.08c-1.45-1.42-1.42-1.81-1.46-3.78q.39-8.59,2.01-10.21c.1-.81.16-1.63.22-2.45.04-.5.07-1,.11-1.52q.05-.79.11-1.61c.07-1.04.15-2.07.22-3.11.03-.46.06-.92.1-1.4.09-.97.21-1.93.35-2.89.23-1.76.27-3.48.27-5.25q0-.51,0-1.03c0-.71,0-1.43,0-2.14,0-1.08,0-2.17,0-3.25,0-.7,0-1.4,0-2.1,0-.32,0-.64,0-.97,0-1.53-.08-3.01-.29-4.53-.33-2.71-.2-5.41-.11-8.14.03-1,.05-1.99.08-2.99.09-3.34.33-6.55.95-9.84.51-2.86.43-5.71-.33-8.5-.51-2-.04-3.13.97-4.94q.33-.53.66-1.08c.88-1.5,1.4-3.03,1.99-4.66h.88v-.88c2.02-1.16,3.9-1.18,6.18-.88q1.57.8,2.31,1.3c.89.53,1.71.75,2.71,1.02,2.5.77,4.24,2.44,6.01,4.3.15.29.29.58.44.88,1.05.42,2.1.79,3.17,1.16,3.05,1.09,5.7,2.43,8.49,4.11,1.42.84,2.88,1.54,4.37,2.24,4.06,1.91,6.46,3.77,8.38,7.92q.45.97,1.19,1.79,1.09.31,2.28.33.6.04,1.21.08c.3.01.61.02.92.03.04-1.86.06-3.72.08-5.57.01-.53.02-1.05.03-1.59.04-4.79-1.23-6.93-4.48-10.3-.27-.29-.54-.57-.82-.86-.53-.56-1.06-1.11-1.6-1.67-.62-.64-1.22-1.29-1.81-1.94-1.39-1.27-2.86-2.1-4.51-2.98-.59-.32-1.18-.64-1.77-.96q-.46-.25-.93-.5c-1.05-.6-2.07-1.24-3.1-1.89-2.32-1.4-4.71-2.27-7.28-3.1-.9-.3-1.8-.61-2.7-.91-.43-.14-.85-.29-1.29-.43-6.71-2.25-12.43-4.67-16.18-10.99-.19-.32-.38-.63-.57-.96-1.74-3.18-2.2-6.69-2.35-10.27-.02-.35-.03-.7-.05-1.06-.16-3.66-.14-7.33-.1-11,.02-2.6-.09-5.14-.35-7.73-.52-5.9-.35-11.83.87-17.62.33-1.63.54-3.24.73-4.89.92-6.54,4.12-12.93,9.33-17.11,6.94-4.71,16.25-4.11,24.21-3.42Z"/>
  <path class="cls-8" d="M1115.33,124.04c3.26,2.8,5.59,6.42,6.09,10.75.17,2.56.15,5.12.12,7.68,0,.4,0,.81,0,1.22-.04,5.87-.35,11.68-.99,17.51-.03.33-.07.65-.1.99-.39,3.57-.99,6.9-2.28,10.27-.53,1.63-.59,3.22-.69,4.92-.18,1.58-.76,2.75-1.45,4.18q-.31,1.23-.44,2.21c-2.94.82-5.86.5-8.85.12-5.43-.67-10.81-.63-16.28-.56q-14.18.19-18.21-2.23-.6-.35-1.21-.71-.92-.59-1.36-1.03c-.07-.63-.11-1.27-.14-1.9-.02-.4-.04-.8-.06-1.21q-.03-.64-.05-1.3c-.02-.44-.04-.87-.05-1.32-.05-1.32-.1-2.65-.14-3.97-.01-.38-.03-.76-.04-1.16-.03-1.02-.05-2.04-.07-3.06,0-.3-.02-.6-.03-.91-.01-1.94.43-2.98,1.46-4.58q-.22-1.42-.88-2.65c-1.54-1.03-2.16-1.03-3.97-.88-1.83.71-2.39,1.61-3.19,3.34-.65,2.03-.59,4.06-.56,6.17,0,.48,0,.96,0,1.45,0,1.01,0,2.02.01,3.03.01,1.54,0,3.09,0,4.63,0,.98,0,1.97.01,2.95,0,.46,0,.92,0,1.39.03,2.3.08,3.84,1.52,5.73v.88c.25.11.5.23.76.35,1.1.58,2.03,1.27,3.02,2.02,5.88,4.13,12.78,4.4,19.75,4.28,3.99-.04,7.91.02,11.89.32,1.81.11,3.61.08,5.43.06.3,0,.6,0,.9-.01,1.51-.02,3.02-.05,4.52-.09.55,0,1.11-.02,1.68-.02q.75-.02,1.51-.04,1.3.19,2.34.97c.78,1.08.94,1.53.92,2.84,0,.34,0,.69,0,1.04-.01.36-.02.71-.03,1.08q0,.53,0,1.08c-.03,1.84-.17,3.02-1.05,4.66-.59,2.91-.94,6.44,0,9.27.2,2.01.38,3.79-.69,5.55-6.7,3.95-18.86.51-25.8-1.13-.55-.16-1.09-.32-1.66-.49-5.09-1.29-10.88-.94-16.11-.97-.7,0-1.41-.01-2.11-.03-1.04-.02-2.08-.03-3.11-.03-.31,0-.62-.02-.94-.02-2.23,0-3.47.59-5.19,1.98-3.19,4.04-3.92,11.29-3.72,16.27.36,2.7,1.17,4.23,3.19,6.03,2.18,1.03,4,.83,6.26.22.94-2.81.9-3.9-.44-6.62-.74-2.89-.13-5.52.44-8.39,3.96.18,7.84.44,11.75,1.09,1.98.31,3.96.51,5.95.72,2.21.24,4.4.52,6.6.83,1.15.16,2.3.32,3.45.48.29.04.58.08.88.12,4.89.66,9.72.96,14.67.95,2.76.03,4.51.09,6.58,1.99.62,1.24.48,2.27.47,3.66,0,.58,0,1.15-.01,1.74,0,.31,0,.61,0,.93-.04,4.95,0,9.88.21,14.83q.89,20.81-3.31,25.63c-3.32,3.16-6.7,2.97-11.06,2.88-3.64-.21-6.7-1.53-10.02-2.93-1.54-.6-3.11-.96-4.71-1.35-3.55-.9-6.81-2.3-10.15-3.78-11.31-4.98-22.69-8.17-34.88-10-3.81-.59-7.52-1.44-11.26-2.37-2.83-.71-5.65-1.32-8.51-1.86-6.28-1.21-12.39-2.99-18.37-5.24-.36-.13-.72-.26-1.09-.39-3-1.19-5.03-3.07-6.54-5.94-.5-1.66-.52-3.28-.53-5.01,0-.37-.02-.73-.02-1.11-.02-1.17-.04-2.33-.06-3.5-.02-1.15-.04-2.31-.06-3.46-.01-.72-.03-1.43-.04-2.15-.03-1.96-.15-3.9-.31-5.85-.27-3.36-.31-6.71-.34-10.08,0-1.15-.02-2.29-.03-3.43-.03-2.44-.05-4.87-.07-7.31-.03-2.82-.05-5.64-.08-8.45-.01-1.11-.02-2.22-.03-3.33-.04-3.89-.17-7.76-.39-11.64-.17-3.11-.23-6.22-.23-9.34,0-.56,0-1.13,0-1.71,0-1.18,0-2.37,0-3.55,0-1.76,0-3.52-.02-5.29-.01-5.93.11-11.82.5-17.73.04-.54.07-1.09.11-1.65.43-5.95,1.36-11.29,5.54-15.76,2.27-1.46,4.44-2.12,7.13-1.56.8.24,1.6.5,2.39.79,1.57.36,2.72.13,4.3-.16.59-.11,1.18-.21,1.76-.32.3-.05.6-.11.9-.16,3.47-.6,6.91-.98,10.43-1.11q.68-.03,1.37-.05c6.49-.23,12.98-.15,19.47-.12,6.63.03,13.26.04,19.89-.19q.72-.02,1.45-.05c2.7-.11,5.32-.36,7.99-.85,4.21-.76,8.42-1.01,12.69-1.26,3.03-.18,6.04-.41,9.05-.81,5.51-.69,11.92-1.22,16.72,2.12Z"/>
  <path class="cls-15" d="M963.94,124.92q.7-.02,1.42-.04c3.74-.03,7.15.57,10,3.16,1.91,2.52,2.31,5.91,2.92,8.94q.18.84.37,1.7c2.23,10.54,5.27,25.64-.98,35.32-1.63,2.15-3.69,3.85-6.37,4.33-1.07.14-1.89.13-2.96-.06-2.27-.36-4.54-.37-6.84-.43-4.59-.16-9.18-.35-13.77-.61-.56-.03-1.11-.05-1.68-.08-3.43-.21-6.2-.57-8.8-3.01-1.16-2.38-.92-4.14-.36-6.65.48-2.53.06-3.61-1.32-5.7-1.35-2.38-1.06-5.11-.72-7.73.18-1.46.21-1.97-.39-3.37-.67-.79-1.33-1.54-2.1-2.23-1.81.59-2.8,1.33-4.06,2.76-.3.33-.6.66-.9,1-1.38,1.93-1.8,4.08-2.19,6.39-.08.44-.16.87-.24,1.32-.25,2.35.06,4.7.25,7.04.12,1.63.21,3.26.31,4.89.02.34.04.68.06,1.02.06,1.03.12,2.07.17,3.1.04.72.08,1.43.12,2.15.1,1.73.2,3.46.29,5.19,2.13.52,4.25.58,6.44.68.41.02.82.04,1.24.06.86.04,1.73.08,2.59.12,1.31.06,2.62.12,3.93.18.84.04,1.68.08,2.53.11.39.02.78.04,1.18.05q4.71.29,9.37-.25c.35-.08.7-.16,1.07-.24.35-.08.71-.16,1.07-.25q11.97-2.71,16.63-.54c2.15,1.47,3.54,3.26,4.48,5.67.75,4.36.18,8.73-.33,13.08-.05.45-.1.91-.16,1.37-.33,2.63-.87,4.88-1.91,7.32h-.88v.88c-2.14.91-3.98,1.25-6.18.44q-.62-.72-1.19-1.56-.96-1.18-2.33-1.77c-1.01-.04-1.98,0-2.99.08-.76.03-1.52.06-2.27.09-.38.02-.76.03-1.15.05-1.61.04-3.19-.07-4.8-.19-4.26-.3-8.52-.23-12.79-.17q-.8,0-1.61.02t-1.45.02q-1.2-.09-2.52-.98-1.56-.18-3.09,0c-.9,1.35-1,1.63-1,3.15,0,.36,0,.72,0,1.09,0,.38,0,.77.01,1.16,0,.39,0,.79,0,1.19.05,3.45.43,6.77.99,10.17.29,1.9.48,3.43,0,5.3-.08.76-.14,1.52-.19,2.28-.03.44-.06.88-.1,1.33-.07.91-.13,1.83-.19,2.75q-.42,5.5-2.4,7.59c-11.86,7-28.23,5.11-41.18,2.7-1.63-.29-3.25-.46-4.89-.61-3.06-.28-5.73-.54-8-2.8-1.69-2.47-1.98-4.7-2.01-7.61-.06-3.12-.28-6.18-.66-9.27-.91-7.44-1.17-14.84-1.34-22.32-.06-2.57-.13-5.13-.19-7.7-.02-.93-.05-1.87-.07-2.8-.08-3.11-.19-6.22-.38-9.33-.24-4.1-.27-8.2-.32-12.3,0-.35,0-.7-.01-1.06-.03-3.27-.07-6.54-.09-9.81-.01-1.81-.03-3.62-.05-5.42,0-.68-.01-1.36-.02-2.04q.1-6.61-2.81-12.3c-1.05-2.55-1.04-4.85-.44-7.5,1.08-2.25,2.55-3.5,4.86-4.41,2.48-.57,4.31-.39,6.76.23,2.72.48,5.42.17,8.14-.18.66-.08,1.32-.16,1.98-.24q.51-.06,1.04-.13c1.82-.22,3.63-.4,5.45-.58.37-.04.74-.07,1.12-.11,1.51-.15,3.02-.3,4.53-.46,1.12-.11,2.25-.23,3.37-.34.34-.03.67-.07,1.02-.1,1.47-.15,2.93-.32,4.4-.53,1.39-.19,2.74-.29,4.15-.33q.81-.02,1.64-.05c.61-.02,1.21-.03,1.82-.05.31,0,.63-.02.95-.03,5.21-.15,10.41-.23,15.62-.3.32,0,.64,0,.96-.01,3.24-.05,6.48-.09,9.72-.13,1.24-.02,2.47-.03,3.71-.05.86-.01,1.71-.02,2.57-.03,2.67-.04,5.3-.15,7.96-.45,2.14-.23,4.3-.22,6.45-.24Z"/>
  <path class="cls-6" d="M798.19,147.13c2.87,1.33,4.73,3.88,6.18,6.62v.88q2.67.37,5.01-.76c.67-.64,1.34-1.28,2-1.93,2.24-2.03,5.17-1.93,8.05-1.86,2.86.31,4.67,1.95,6.44,4.13,1.03,1.56,1.89,3.38,1.89,5.27.38.04.76.07,1.16.11,2.46.55,3.96,1.68,5.35,3.75,1.94,3.39,2.14,6.44,1.43,10.26-.22.65-.46,1.3-.72,1.93-.76,2-.54,2.77.16,4.72,1.37,3.89,1.04,6.72-.33,10.57-.21.4-.42.8-.63,1.21-.08.33-.16.66-.25.99.43.62.86,1.23,1.31,1.83,1.13,2.01,1.09,4.53.72,6.76-.8,2.8-2.25,5.08-4.8,6.56-1.51.7-2.61,1.18-4.29,1.18-.08.29-.15.58-.23.87-1.19,4.29-2.96,6.92-6.89,9.2-3.48,1.36-7.49.57-10.98-.36-.12.25-.25.49-.37.74-1.64,3.12-3.73,6.67-7.13,8.08-4.14.88-6.94-.22-10.46-2.37q-1.01-.72-1.96-1.7c-.27-.26-.54-.52-.82-.79q-1.2.1-2.65.44c-3.92.29-6.93-.09-10.07-2.54-1.94-1.8-2.69-3.62-2.81-6.26.03-.45.05-.89.08-1.35q-.57-.15-1.16-.3c-2.28-.89-3.72-2-4.87-4.17-.74-1.83-.76-3.53-.7-5.48,0-.32,0-.64,0-.98.03-1.84.19-3.59.54-5.4q-.4-.17-.81-.33c-1.1-.63-1.5-1.18-2.14-2.26-.18-.3-.37-.6-.56-.91-1.4-2.75-1.3-6.04-.53-8.97.31-.91.62-1.81.96-2.7.36-.98.69-1.9.87-2.93-.15-.29-.29-.58-.44-.88-.68-4.1-.5-6.81,1.85-10.24,1.14-1.14,1.67-1.44,3.06-2.07q.97-.49,1.71-1.38c.4-1.47.64-2.87.85-4.37.4-2.73,1.26-4.59,3.12-6.66.2-.24.4-.48.61-.73,1.28-1.31,2.41-1.63,4.17-1.7,3.42.19,6.18,1.28,8.91,3.31,1.19-1.54,2.23-3.16,3.27-4.8,1.88-2.5,3.9-2.8,6.89-2.26Z"/>
  <path class="cls-1" d="M322.49,4.88c.36,0,.73-.02,1.1-.03,2.41-.02,4.12.27,6.24,1.46q.72,1.49.88,3.09c-.58,1.31-1.2,2.08-2.21,3.09-.88.18-1.76.33-2.65.44,0,.25-.01.49-.02.75-.25,8.67-.8,17.39-2.82,25.85-.33,1.62-.35,3.09-.25,4.74.48.05.97.09,1.46.14q1.63.3,2.48.77c.77,1.41.75,2.84.47,4.39-1.03,1.43-1.84,1.88-3.53,2.21-2.61.22-4.86.27-7.06-1.32-1.18-2.07-1.03-4.26-1.02-6.57,0-.44,0-.87,0-1.32.06-4.96.6-9.86,1.13-14.78.38-3.62.59-7.24.77-10.87-1.1,2.79-2.19,5.57-3.28,8.36-.16.41-.32.82-.49,1.25-2.12,5.41-4.2,10.83-6.09,16.33q-1.7,4.88-3.82,6.29-3.07.35-4.77-.94c-.97-1.27-1.6-2.48-2.29-3.92-.38-.56-.76-1.12-1.15-1.67-1.89-2.82-3.45-5.81-5-8.81-.16-.3-.31-.6-.47-.91-2.47-4.76-4.4-9.51-5.89-14.67-.41-1.24-.99-2.37-1.61-3.52-.39,4.86-.48,9.52.07,14.37.44,3.95.54,7.89.62,11.86.07,2.74.29,5.14,1.07,7.77.32,1.29.42,2.17.44,3.53-.9,1.29-1.6,2.08-3.18,2.41-1.15.08-2.28.08-3.44.04-.39,0-.79,0-1.19.01-1.86-.02-2.97-.12-4.61-1.06q-.82-.97-.74-2.63c.12-.47.24-.95.36-1.43.56-.22,1.12-.44,1.68-.66.31-.12.62-.25.95-.37q.9-.29,2.23-.29V13.82h-3.53q-2.02-.94-2.65-2.21-.25-2.72.66-4.05c1.55-1.12,3.01-1.08,4.86-1.11.71-.02,1.43-.04,2.14-.07.35,0,.7-.02,1.06-.03,1.74-.07,3.47-.3,5.19-.53,1.45.06,2.13.54,3.3,1.37q.65.96,1.18,2.09c.2.42.4.83.6,1.26.2.44.41.89.61,1.35.21.46.43.92.65,1.39,1.33,2.88,2.44,5.77,3.41,8.79,1.17,3.47,3.02,6.57,4.84,9.73.76,1.33,1.43,2.64,1.94,4.09.99-1.48,1.63-3.03,2.31-4.67.14-.33.28-.67.42-1.01.44-1.07.89-2.14,1.33-3.21.29-.7.58-1.39.87-2.09,1.16-2.79,2.32-5.59,3.46-8.39.14-.34.28-.69.42-1.04.27-.65.53-1.3.79-1.95.54-1.33,1.08-2.48,1.88-3.69h.88q.16-.72.33-1.46c.57-1.68.78-2.16,2.32-2.95,2.09-.57,4.19-.54,6.35-.55Z"/>
  <path class="cls-1" d="M879.82,4.11c1.08.51,1.93.58,3.12.66,1.54.09,2.65.28,3.97,1.1.71,1.42.7,2.88.44,4.41-1.58,1.88-3.45,2.11-5.74,2.65q0,.66,0,1.33c.03,4.12.05,8.25.06,12.37,0,2.12.02,4.24.03,6.36.01,2.05.02,4.09.03,6.14,0,.78,0,1.56.01,2.34,0,1.09.01,2.19.01,3.28,0,.32,0,.64.01.98-.02,2.48-.64,3.87-2.37,5.61q-1.46.19-3.09,0-1.08-.86-2.21-2.21-.35-.36-.7-.74c-2.48-2.63-4.56-5.54-6.67-8.46-1.51-2.07-3.05-4.05-4.74-5.97q-2.01-2.48-5.1-8.22c-.15,6.56-.29,13.11-.44,19.86,1.02.44,2.04.87,3.09,1.32.68,1.36.57,2.47.44,3.97-.97,1.32-1.49,1.72-3.12,1.99q-.78,0-1.57,0t-1.71,0q-.44,0-.89-.01c-.9-.01-1.79,0-2.69,0q-4.33-.03-5.41-.78c-.85-1.28-.68-2.35-.49-3.84,1.25-1.85,2.77-2.09,4.86-2.65,0-.43.02-.86.03-1.31.21-10.03.61-20.02,1.3-30.03q-.5.02-1.02.05c-.44.01-.88.02-1.33.04-.44.02-.87.03-1.32.05q-1.19-.13-2-.74c-.64-.89-.68-1.39-.65-2.48,0-.3,0-.6,0-.91q.13-.86,1.02-2.18,1.21-.29,2.65-.47,1.99-.17,3.53-1.3c2.86-.43,5.62.52,7.95,2.21.56,1.06.95,1.97,1.32,3.09.11.32.22.64.33.97.24.7.47,1.4.7,2.1,2,6.02,4.38,11.28,8.6,16.1.76.9,1.45,1.79,2.12,2.75.2.28.39.55.59.84.15.21.3.42.45.64.02-.56.05-1.11.07-1.69.09-2.08.18-4.15.28-6.23.04-.9.08-1.79.12-2.69.06-1.29.12-2.59.17-3.88q.03-.6.05-1.2c.11-2.3.31-4.55.63-6.83q-.48-.04-.97-.08c-1.67-.48-2.37-1.21-3.45-2.57-.53-1.58-.59-2.3.06-3.83,1.16-1.43,2.31-2.11,4.06-2.68,1.88-.18,3.87-.11,5.57.78Z"/>
  <path class="cls-1" d="M421.92,5.27c.84,1.45.79,2.49.61,4.14-.29.44-.58.87-.88,1.32q-.2,1.41-.27,3.05c-.02.31-.03.62-.05.94-.16,3.23-.21,6.47-.25,9.71-.09,6.22-.21,12.42-.92,18.61q-.08.67-.15,1.36c-.35,2.72-.76,5.37-2.77,7.38-1.66.22-2.84.38-4.33-.44-2.54-2.07-4.48-4.83-6.44-7.44-1.39-1.77-3.02-3.04-4.82-4.37-3.56-2.63-6.41-5.74-8.25-9.82v-.88h-.88c0,.26,0,.52,0,.79q.13,16.7-2.66,20.17c-2.17,1.63-4.92,1.29-7.5,1.1-1.39-.3-2.71-.67-3.97-1.32-.68-1.36-.57-2.47-.44-3.97q.58-1.08,1.77-1.77,1.18-.07,2.5-.04.66,0,1.33.02.51.01,1.02.02c.01-.36.02-.71.03-1.08.28-8.91.56-17.82.85-26.73-.37-.08-.74-.16-1.13-.24-.48-.11-.97-.22-1.47-.34-.48-.11-.96-.22-1.46-.33q-1.24-.42-2.13-1.74c-.18-1.63-.28-2.66.63-4.06,1.71-1.2,3.26-1.04,5.3-.99q.56,0,1.13,0c2.12.02,3.64.09,5.3,1.53,2.52,2.78,4.28,5.94,6.01,9.24.24.45.48.9.73,1.36,1.32,2.47,2.59,4.95,3.81,7.46,1.47,2.82,3.8,4.55,6.25,6.5.99.79,1.95,1.6,2.91,2.42.28.24.55.47.83.72.21.18.42.36.63.54q.02-.41.03-.83c.11-2.86.21-5.71.32-8.57.04-1.06.08-2.13.12-3.19.06-1.54.12-3.07.17-4.61q.03-.71.05-1.43c.1-2.64.3-5.23.63-7.86-.4.04-.8.07-1.21.11q-1.43-.11-2.46-.86c-.85-1.16-1.15-1.79-1.19-3.23.75-1.69,1.41-2.39,3.09-3.09,3.02-.68,6.85-.95,9.55.72Z"/>
  <path class="cls-1" d="M789.3,10.01c2.92,4.16,3.25,9.94,2.7,14.84-.41,1.26-.87,2.37-1.51,3.52-.08.29-.17.59-.26.89q.56.94,1.32,1.77c1.35,3.64,1.21,7.37,0,11.04-2.43,4.58-7.22,7.07-11.92,8.83-4.93,1.49-9.87,2.03-15.01,1.77-.79-.02-1.57-.04-2.36-.06-.84-.03-1.68-.05-2.52-.08-.4,0-.8-.02-1.21-.03q-3.77-.16-5.38-1.6-.26-.86-.22-1.77c0-.3,0-.6.01-.91.28-1.17.5-1.52,1.53-2.18,1.24-.1,2.38-.12,3.61-.08q.5,0,1,.02c.82.02,1.63.04,2.45.06-.15-.44-.29-.87-.44-1.32-.05-.89-.07-1.79-.08-2.69,0-.55-.01-1.11-.02-1.68,0-.3,0-.59,0-.9,0-.93-.02-1.86-.03-2.79-.03-1.98-.05-3.96-.07-5.93-.03-2.29-.05-4.57-.08-6.86-.01-.91-.02-1.82-.03-2.73-.04-2.77-.12-5.47-.55-8.2-.3.01-.61.02-.92.03q-.6.01-1.21.02c-.39.01-.79.02-1.19.03q-1.09-.09-2.42-.97-.08-1.41.44-3.09c8.12-5.28,26.89-5.13,34.38,1.05ZM766.4,12.94c.29,4.22.58,8.45.88,12.8q2.12-.11,4.28-.22c3.21-.17,6.38-.25,9.59-.11,1.41-.14,2.21-.61,3.35-1.44,1.03-2.07.57-4.8.06-6.98-.46-1.28-.77-1.74-1.93-2.47-2.68-1.1-5.27-1.64-8.16-1.62-.42,0-.85,0-1.29,0q-.8,0-1.62.01c-1.7,0-3.41.02-5.16.03ZM774.96,32.58c-.9.04-1.8.08-2.69.12-.39.02-.79.04-1.19.06-.78.03-1.57.03-2.36.02q-.97-.09-1.43.46c-.06.64-.09,1.29-.11,1.93-.01.4-.03.8-.04,1.21-.03.84-.05,1.67-.08,2.51-.1,2.64-.45,5.03-1.1,7.6,6.28.16,12.08-1.14,17.22-4.86.27-.18.54-.36.81-.55.92-.73,1.35-1.44,1.58-2.58.14-2.45-.41-3.82-1.95-5.7q-.49-.59-1.69-.48c-2.32.03-4.65.15-6.97.26Z"/>
  <path class="cls-1" d="M584.2,6.91q2.38,1.73,2.98,2.94.17,1.24,0,2.65c-.36.35-.71.69-1.08,1.05-2.28,2.34-1.66,6.61-1.7,9.73,0,.48-.02.97-.02,1.46-.03,1.54-.05,3.08-.07,4.62q-.17,11.5-.4,17.1-.02.57-.04,1.16t-.05,1.06c-.01.3-.02.61-.04.92-.16,1.02-.48,1.75-1.02,2.63-1.01.5-1.66.54-2.79.58q-.5.02-1.02.05c-1.79-.32-2.8-1.31-3.84-2.77-.62-.98-1.21-1.97-1.79-2.97-.43-.72-.86-1.44-1.29-2.16q-.31-.52-.62-1.05c-.7-1.17-1.45-2.3-2.2-3.43-1.41-2.18-2.54-4.47-3.68-6.8-2.43-4.93-5.38-9.52-8.38-14.12-1.24,7.52-1.03,15.06-.72,22.65.01.37.03.74.04,1.12.09,1.69.16,2.6,1.12,4.04q.29,2.69-.71,4.06c-1.39,1.05-2.22.99-3.95.93q-.82-.02-1.65-.05c-.54-.03-1.08-.06-1.63-.09-.47-.02-.95-.05-1.44-.07q-3.21-.23-4.74-1.25-.62-2.98-.08-4.61.52-.69,1.41-1.13c.83-.03,1.66-.04,2.48-.03q.66,0,1.34.01c.34,0,.68.01,1.03.02.03-.41.07-.82.1-1.25.75-9.31,1.58-18.6,2.55-27.89-.44.15-.87.29-1.32.44q-.95.09-1.99.11c-.34.01-.68.02-1.03.03q-.95-.14-1.73-.72c-.93-1.26-.74-2.33-.55-3.84,1.06-1.67,2.62-2.3,4.46-2.85,1.64-.3,3.26-.38,4.92-.4q.45,0,.92-.02c1.95.02,3.19.29,4.71,1.51q.78,1.01,1.49,2.18c.26.43.52.86.79,1.31,1.03,1.76,2.06,3.52,3.07,5.29.66,1.11,1.36,2.15,2.09,3.2,1.55,2.3,2.69,4.75,3.84,7.28.4.88.81,1.76,1.22,2.64q.26.58.53,1.16c.83,1.55,1.82,2.9,2.86,4.31,0-.26,0-.52.01-.79.05-2.71.1-5.43.15-8.14.02-1.01.04-2.03.06-3.04.03-1.46.05-2.91.08-4.37,0-.45.01-.9.02-1.37,0-.42.02-.85.03-1.28,0-.37.01-.74.02-1.13.07-1.12.27-2.18.51-3.28-.26-.02-.53-.04-.8-.06q-.97-.39-1.77-1.57c-.59-1.65-.6-2.45-.08-4.11,2.35-2.78,6.27-3.47,9.38-1.61Z"/>
  <path class="cls-1" d="M458.65,6.04c.32.04.64.08.97.12q.87.16,2.2.6c1.22,3.01,2.3,6.46,1.77,9.71q-.86,1.32-2.21,2.21c-1.9.38-3.4.36-5.05-.69-.86-1.34-1.22-2.63-1.57-4.17-.22.07-.44.14-.67.22-1.48.3-2.94.28-4.45.27-.32,0-.64,0-.97,0-1.02,0-2.04,0-3.06-.01-.69,0-1.39,0-2.08,0-1.7,0-3.39-.01-5.09-.02.44,3.79.87,7.57,1.32,11.48,1.89.15,3.79.29,5.74.44.29-.73.58-1.46.88-2.21q.88-.88,2.57-1.08c1.56.03,1.82.17,3.12,1.21,2.17,2.75,2.09,4.82,1.82,8.25-.37,1.71-.99,2.79-2.32,3.97-1.62.59-2.65.43-4.3,0q-.86-.61-1.32-1.32v-1.32q-3.06-.22-6.18-.44c.24,3.54.5,7.07.88,10.59.3-.02.59-.03.9-.05,3.46-.09,6.79.23,10.22.68.45.06.91.12,1.38.18q3.28.45,4.28.95c-.02-.53-.04-1.06-.06-1.6,0-1.68.31-3.01.94-4.58q3.14-.27,4.8.86c1.83,2.64,2.08,5.71,1.82,8.86-.69,1.78-1.05,2.47-2.65,3.53q-.86.11-1.83.12c-.36,0-.72,0-1.09,0-.38,0-.77,0-1.16-.01-.4,0-.8,0-1.21,0-2.88-.04-5.62-.32-8.46-.76-4.38-.58-8.84-.71-13.26-.61-2.35.02-3.99-.33-6.1-1.38-.67-1.35-.54-2.49-.44-3.97q.44-1.05,1.32-1.77c1.19-.28,2.3-.36,3.53-.44l-.44-.88c-.56-4-.58-8.07-.71-12.1-.09-2.56-.25-5.09-.52-7.64-.14-1.54-.13-3.05-.12-4.6,0-.57,0-1.15.01-1.74,0-.43.01-.85.02-1.29q-.45.02-.92.05c-.4.01-.8.02-1.21.04q-.59.02-1.19.05-1.09-.13-1.89-.69c-.74-1.07-.71-2.12-.75-3.4.33-1.35.88-1.82,1.98-2.66,1.19-.4,2.29-.71,3.5-.97.3-.07.6-.15.91-.22,5.37-1.21,11-1.12,16.48-1.29q3.14-.1,6.26-.42c1.31-.17,2.36-.2,3.66-.03Z"/>
  <path class="cls-1" d="M366.91,9.85q.41.25.83.51c3.87,2.44,5.8,6.32,6.83,10.67.44,2.63.46,5.28.48,7.94,0,.48,0,.97.01,1.47-.09,7.95-3.94,13.15-9.41,18.63-3.18,2.94-6.83,3.67-11.1,3.6-6.16-.59-12.63-2.63-16.77-7.5-3.79-5.04-5.89-9.48-5.3-15.89.95-6.57,2.56-12.6,7.06-17.66.24-.28.47-.56.71-.85,7.26-8.08,18.66-6.61,26.65-.91ZM345.27,16.3c-3.64,4.42-5.21,10.46-5.05,16.13.38,2.25,1.51,3.87,2.86,5.67.19.29.37.57.56.87,2.14,2.97,5.78,4.19,9.15,5.31,2.26.22,4.22.31,6.29-.69.4-.36.8-.71,1.21-1.08.25-.22.5-.44.75-.67,3.46-3.24,5.66-6.65,5.96-11.44.11-4.3.05-8.77-2.69-12.32-2.09-2.15-4.85-3.5-7.56-4.72h-.88q-.22-.66-.44-1.32c-3.91,0-7.38,1.52-10.17,4.24Z"/>
  <path class="cls-1" d="M818.66,7.06q.64-.02,1.28-.04c.41,0,.82,0,1.24-.01.37,0,.75-.01,1.13-.02,1.43.29,1.91.84,2.8,1.97q.53,1.16.96,2.48c.16.49.33.97.5,1.47.16.51.33,1.01.5,1.54.33.99.66,1.99.99,2.98.17.5.33,1,.5,1.51.51,1.47,1.06,2.92,1.63,4.37,1.13,2.91,2.04,5.86,2.91,8.86.15.5.29,1,.45,1.51.94,3.22,1.8,6.46,2.59,9.72.15.59.29,1.18.44,1.77.89.07,1.78.14,2.67.22q.86.23,1.74,1.55c.18,1.66.26,2.68-.63,4.11-2.77,1.83-6.01,1.73-9.21,1.79-.35.01-.7.02-1.06.03-1.67,0-2.51,0-3.89-1.01-.9-1.31-.92-2.05-.66-3.6,1.13-1.49,1.67-1.74,3.53-2.21-.58-2.19-1.17-4.37-1.77-6.62-1.03-.06-2.06-.12-3.12-.18-1-.06-2-.12-3-.18-.69-.04-1.39-.08-2.08-.12-1-.06-2-.12-3-.17-.31-.02-.62-.03-.94-.05-1.44-.09-2.8-.2-4.19-.63-.21.84-.42,1.67-.63,2.51-.12.47-.24.93-.36,1.41-.11.45-.22.91-.33,1.37-.1.4-.21.81-.32,1.22q-.06.49-.13.98c.57.61,1.16,1.2,1.77,1.77.55,1.44.54,1.97-.08,3.39-.86,1.1-1.27,1.42-2.57,1.9q-1.35.07-2.91.02c-.56-.02-1.13-.04-1.71-.06-.29-.01-.58-.02-.89-.04-.89-.04-1.78-.06-2.68-.09q-4.91-.18-6.39-1.16c-.63-1.25-.58-2.14-.44-3.53.82-1.12,1.41-1.65,2.73-2.1,1.74-.15,3.47-.14,5.21-.11.1-.5.19-.99.29-1.5.77-3.47,1.95-6.84,3.05-10.22.12-.36.23-.72.35-1.09,1.98-6.1,4.11-12.12,6.46-18.08-.42,0-.84.02-1.27.03q-1.38-.03-2.2-.47c-.8-1.43-.77-2.85-.5-4.41q.63-1.08,1.77-1.77c1.03-.2,2.03-.3,3.08-.36,2.13-.19,4.11-.63,6.36-.66ZM818.49,14.26c-1.19,3.02-2.16,6.1-3.12,9.19-.27.88-.55,1.76-.83,2.64-.18.56-.35,1.13-.53,1.69-.16.51-.32,1.01-.48,1.54q-.4,1.26-.34,2.59,5.98.09,11.92-.44c-1.01-3.48-2.17-6.87-3.46-10.25-.87-2.29-1.63-4.6-2.28-6.96h-.88Z"/>
  <path class="cls-1" d="M1070.99,7.64c.7,1.41.61,2.88.44,4.41q-.47.86-1.32,1.32-1.63.3-3.09.44l.44,1.32c.11,2.27.08,4.54.08,6.81,0,.34,0,.67,0,1.02,0,7.85-.44,15.67-.97,23.51.49-.01.98-.03,1.48-.04q1.61.04,2.69.73c.95,1.48.91,2.45.69,4.17-.81,1.15-1.28,1.31-2.65,1.77-1.25.05-2.48.08-3.72.08-.34,0-.67.01-1.02.02q-3.23,0-4.52-.98-.55-1.38-.88-2.65c-.27.13-.55.25-.83.39-5,2.1-9.94,1.95-15.03.17-4.12-1.69-7.58-3.45-9.47-7.65-.83-5.25-.61-10.77,2.26-15.37,2.72-3.69,6.57-6.27,11.15-7.12,4.87-.38,8.92.39,13.24,2.65-.01-1.3-.04-2.59-.08-3.89,0-.37,0-.74,0-1.11-.04-1.03-.09-1.95-.35-2.94q-1.03-.87-2.21-1.32c-1.03-1.54-1.07-2.16-.88-3.97.79-1.38,1.11-1.7,2.65-2.21,3.98-.43,8.06-.84,11.92.44ZM1043.21,30.35c-1.75,2.18-2.43,3.61-2.46,6.46-.01.53-.03,1.07-.04,1.62q.13,1.5,1.24,2.46c3.32,2.03,7.04,3.26,10.94,2.52,1.73-.72,3.29-1.61,4.86-2.65.33-.17.67-.34,1.01-.52,1.22-1.3,1.01-2.81.98-4.5,0-.33.01-.67.02-1.01-.01-1.68-.13-2.61-1.01-4.08-2.32-2.16-5.6-3-8.71-3.21-2.65.17-4.81,1.24-6.82,2.91Z"/>
  <path class="cls-1" d="M930.17,9.41c.63,1.25.58,2.14.44,3.53-1.16,1.77-2.66,2.12-4.63,2.56-3.09,1.48-5.18,4.78-7.18,7.45-.25.33-.5.66-.75,1-.67.89-1.34,1.78-2.01,2.67-.25.3-.5.61-.76.92-.19.28-.38.56-.57.84.3,1.46.81,2.13,1.88,3.17,2.21,2.26,3.59,5.05,4.94,7.89q1.94,4.01,5.35,6.63,1.16.33,2.3.52c1.27.42,1.65.94,2.31,2.09q.19,1.35,0,2.65c-.93,1-1.56,1.28-2.9,1.55q-1.1.12-1.68.88c-1.14,1.06-2.3,1.02-3.81,1.1q-.66-.44-1.32-.88c-1.13-.25-2.26-.42-3.41-.59q-1.01-.29-1.89-1.62c-.09-1.64-.08-2.86.44-4.41q-.63-1.25-1.55-2.59c-1.62-2.52-3.04-5.07-4.4-7.74q-.63-1.24-2.01-2.02c-.23.22-.46.44-.69.66-1.43.88-2.52.71-4.17.66.06,1.57.13,3.15.19,4.72.02.44.03.89.05,1.35.02.43.04.86.06,1.31.02.4.03.79.05,1.2q.07,1.16.34,2.32c.26,1.37-.02,2.03-.69,3.24-1.23,1.32-2.53,1.6-4.31,1.77-1.7,0-3.38-.24-4.96-.88-1.09-1.64-1.09-2.47-.88-4.41q.77-1.08,1.77-1.77h1.77c-.07-.45-.14-.9-.22-1.37-.2-1.56-.28-3.02-.27-4.59,0-.55,0-1.1,0-1.66,0-.59,0-1.18,0-1.77,0-.61,0-1.22,0-1.83,0-1.59,0-3.19.01-4.78,0-1.63,0-3.26,0-4.89,0-3.19.01-6.39.02-9.58-.56-.06-1.12-.12-1.7-.18-1.3-.13-1.81-.25-2.94-.98-.92-1.46-.88-2.45-.66-4.14.71-.97,1.1-1.28,2.3-1.5,1.21-.01,2.42-.02,3.63-.01.42,0,.84-.02,1.28-.03q3,0,4.53.87c.92,1.66.99,3.24,1.06,5.09.02.54.05,1.09.07,1.65.07,1.89.13,3.78.18,5.67.02.66.04,1.32.06,1.99.05,1.61.09,3.22.14,4.83.34-.42.67-.84,1.02-1.28,2.46-3.08,4.93-6.16,7.44-9.2.27-.33.54-.66.81-1q.39-.44.78-.89c.68-1.11.58-1.58.32-2.83-.19-1.33-.23-2,.14-3.31,3.45-3.25,10.94-2.44,14.65-.03Z"/>
  <path class="cls-1" d="M730.06,6.26c.51-.01,1.03-.02,1.56-.04q.69-.02,1.4-.04,1.16.14,1.96.72c1.16,1.62,1.04,3.23,1.05,5.15,0,.55.01,1.09.02,1.66q-.1,1.43-.98,2.76-1.02.18-2.21.17c-.39,0-.78,0-1.19.01-.34-.06-.67-.12-1.02-.18-1.01-1.52-.96-2.2-.88-3.97-1.55-.01-3.11-.02-4.66-.03-.44,0-.87,0-1.33-.01-2.33,0-4.51.12-6.81.48-1.53.11-3.07.18-4.61.25q-.61.03-1.23.06c-1,.05-1.99.09-2.99.14.13.27.26.55.4.83.67,1.89.92,3.79,1.2,5.76.06.39.12.78.18,1.18.29,1.99.5,3.9.43,5.91q.82-.11,1.66-.22,6.21-.69,8.94.22.08-.75.17-1.52c.09-.52.18-1.04.28-1.57,1.41-.7,2.88-.61,4.41-.44q.86.5,1.32,1.32c.67,2.56.95,5.51-.17,7.95q-.72.88-1.6,1.32-.86-.04-1.93-.16c-1.71-.19-3.42-.37-5.14-.51-.4-.03-.8-.07-1.22-.11-.49-.04-.98-.08-1.48-.13-1.58-.14-3.17-.27-4.8-.41.15,4.08.29,8.16.44,12.36,1.42,0,2.84-.02,4.3-.03,2.69-.01,5.33.01,8,.3,2.04.2,3.46.11,5.35-.72q.44-.66.88-1.32c1.35-.35,2.18-.56,3.53-.44q1.32.86,2.21,2.21c.25,2.26.11,4.1-.88,6.18-4.1,2.76-11.43,1.85-16.19,1.66-.66-.02-1.32-.05-1.97-.07-3.7-.14-7.39-.33-11.08-.65-.36-.03-.72-.06-1.1-.09-2.05-.21-3.62-.63-5.41-1.73-.67-1.33-.52-2.5-.44-3.97.29-.44.58-.87.88-1.32q1.15-.13,2.48-.08.66.02,1.34.04c.34.02.68.03,1.03.05-.14-.5-.28-1-.43-1.51-.51-2.05-.6-4.01-.62-6.11,0-.39-.02-.77-.02-1.17-.02-1.23-.04-2.45-.06-3.68-.03-1.6-.05-3.2-.08-4.81,0-.39-.01-.79-.02-1.19-.08-4.15-.3-8.29-.53-12.43-.42.01-.84.02-1.27.03q-1.38-.03-2.2-.53c-.73-1.22-.67-2.09-.5-3.48,1.63-2.08,4.44-2.45,6.92-2.83,1.26-.13,2.52-.23,3.79-.32q.7-.05,1.42-.1c6.5-.45,13.01-.55,19.51-.78Z"/>
  <path class="cls-1" d="M659.63,6.65c.4,0,.8-.02,1.21-.03.38,0,.77,0,1.16,0,.35,0,.7,0,1.06-.01,1.16.2,1.54.57,2.25,1.48q.19.86.19,1.77.01.45.03.91c-.07.28-.14.56-.22.86-.3.17-.59.35-.9.53q-1.02.76-.99,2.16c.05.55.09,1.1.14,1.66q.03.44.07.89c.07.93.16,1.86.24,2.79.05.63.1,1.26.15,1.9.12,1.55.26,3.1.4,4.64.57-.07,1.14-.14,1.73-.22,2.11-.23,4.18-.28,6.3-.27.37,0,.73,0,1.11,0,1.16,0,2.31,0,3.47.01.79,0,1.58,0,2.37,0,1.92,0,3.85.01,5.77.02,0-.51-.01-1.01-.02-1.53,0-.68,0-1.35-.01-2.03,0-.33,0-.66-.01-1.01,0-2.06.14-4,.48-6.03q-.63-.18-1.27-.36-1.38-.52-2.26-1.85c-.16-1.49-.17-2.35.58-3.67,1.4-1.4,2.95-1.26,4.83-1.27,2.6.02,4.71.11,6.95,1.52q.44.77.41,2.1c-.47,1.51-.82,1.89-2.18,2.65q-.66.22-1.32.44c-.4,5.14-.51,10.24-.5,15.39,0,1.25,0,2.5,0,3.75,0,2.3.02,4.6.06,6.91,0,.31.01.62.02.95.02.81.06,1.62.1,2.43.02.43.04.86.06,1.31.34,1.35.9,1.63,2.03,2.38q.17,1.09.11,2.29c-.02.4-.03.8-.05,1.21-.02.3-.04.61-.06.92-1.31.65-2.53.47-3.97.44q-.44.87-.88,1.77-2.86.16-3.95-.61-.47-.72-.47-1.6c-.28-.06-.56-.13-.86-.19q-.91-.25-1.35-.69-.21-2.8.61-3.95.72-.47,1.6-.47c-.15-.44-.29-.87-.44-1.32-.04-.98-.05-1.95-.04-2.93,0-.52,0-1.03,0-1.57,0-.66,0-1.31.01-1.99,0-2.08.02-4.17.03-6.32h-18.98c.15,1.02.29,2.04.44,3.09.12,2.15.14,4.3.17,6.46.02.58.03,1.16.05,1.75,0,.56.01,1.11.02,1.69,0,.51.02,1.01.03,1.53-.34,1.8-1.06,2.44-2.46,3.58-2.28.76-4.75.71-7.06.08q-.88-.52-1.77-1.85-.19-1.27,0-2.65.97-1.27,2.21-2.21,1.18-.06,2.21,0c.06-3.85-.11-7.62-.44-11.45-.53-6.64-.53-13.24-.44-19.89-.3.02-.61.03-.92.05-.4.01-.8.02-1.21.04-.39.02-.79.03-1.19.05q-1.09-.13-1.89-.7c-.88-1.26-.69-2.36-.53-3.84.64-1,1.06-1.25,2.2-1.57,1.93-.29,3.85-.3,5.8-.31Z"/>
  <path class="cls-1" d="M977.24,12.8c.32,0,.64-.01.97-.02,2.11,0,3.57.29,5.38,1.48,1.48,1.53,2.22,3.09,2.95,5.08.18.49.37.97.56,1.48.86,2.6.99,4.94.99,7.66,0,.4,0,.79,0,1.2-.03,3.44-.23,6.85-.5,10.28-.04.5-.08,1.01-.12,1.53q-.29,3.57-.79,4.57.66.22,1.32.44c.68,1.36.57,2.47.44,3.97-1.04,1.41-1.85,1.88-3.53,2.21-.66.06-1.32.1-1.99.11-.33.01-.66.02-1.01.03q-.98-.14-1.84-.85t-2.04-.46c-.42.14-.84.28-1.27.42-4.59,1.3-9.72,1.39-14.02-.88-2.47-2.03-4.61-4.23-4.94-7.5.13-3.79,2.22-6.57,4.74-9.25,4.04-3.64,8.28-5.2,13.65-5.11,1.66.12,3.13.49,4.72.97-.14-3.52-.85-6.46-2.21-9.71-3.78-.45-6.59.51-9.71,2.65-1.45,1.38-2.71,2.87-3.97,4.41q-1.55,1.73-3.31,1.99-1.55-.22-2.51-.89c-1.11-1.53-1.02-2.92-.96-4.74,0-.32,0-.64,0-.97.04-2.52.35-5.02,1.49-7.31h3.53c.15.58.29,1.17.44,1.77.41-.24.81-.49,1.23-.74.55-.32,1.09-.65,1.64-.97.27-.16.53-.32.8-.49,3.18-1.86,6.19-2.37,9.85-2.35ZM968.49,39.15c-1.18,1.06-2.11,2.04-3,3.36q-.12,1,.44,1.77c2.49,1.54,5.4,1.16,8.15.53q3.27-.86,5.97-2.74.21-1.21.11-2.51-.02-.66-.05-1.33c-.02-.34-.04-.67-.06-1.02-4.58-1.87-7.73-1.16-11.57,1.94Z"/>
  <path class="cls-1" d="M180.19,11.61c.82.82.5,1.95.5,3.04q-.06.93-.28,1.75c-.23.98-.28,1.84-.28,2.84q0,.56,0,1.13c0,.4,0,.8,0,1.21q0,.62,0,1.26c0,.88,0,1.76,0,2.64,0,1.33,0,2.67,0,4,0,3.84.01,7.64.4,11.46.18,1.94.2,3.87.21,5.82,0,.39.02.78.03,1.18q0,.56,0,1.13c0,.33,0,.66.01,1q-.08.41-.16.83c-1.66,1.1-2.45,1.12-4.41.88-3.58-3.22-6.51-7.16-9.02-11.25-.81-1.3-1.71-2.51-2.65-3.72-.51-.68-1.01-1.37-1.49-2.06-1.86-2.67-3.87-4.96-6.22-7.2q-.93-.92-1.81-2.25c-.69,1.38-.56,2.86-.6,4.37-.01.35-.02.71-.03,1.07-.02.75-.04,1.51-.06,2.26-.03,1.12-.06,2.25-.1,3.37-.02.74-.04,1.47-.06,2.21q-.01.55-.03,1.1c-.03,1.82,0,3.6.16,5.41q.04.51.09,1.03c.06.64.13,1.28.22,1.91.17,1.73.05,2.32-1.05,3.71-1.93,1.48-3.71,1.17-6.04.91-1.6-.29-2.79-.58-3.97-1.77q-.12-.83-.11-1.77c0-.31,0-.62,0-.94q.12-.83,1-1.71,2.79-.15,3.97.44,0-.63,0-1.27c-.04-8.86.02-17.69.45-26.54-.43-.06-.86-.13-1.3-.19q-1.35-.25-1.79-.69c-.22-1.5-.24-2.91,0-4.41,1.61-2.02,3.07-2.47,5.59-2.76,2.04.22,3.38,1.12,4.8,2.57.35.44.7.87,1.06,1.32.19.24.38.47.58.71,1.13,1.4,2.17,2.84,3.17,4.34,1.39,2.04,2.99,3.8,4.67,5.6,2.27,2.43,4.13,5.04,6.03,7.75.28.39.55.79.84,1.19.21.3.42.6.63.91-.03-2.43-.07-4.86-.12-7.28-.01-.83-.03-1.65-.04-2.48-.01-1.19-.04-2.37-.06-3.56,0-.37,0-.74,0-1.12q.03-1.91-.88-3.49c-.22-.2-.44-.4-.67-.61-.35-1.37-.34-2.6,0-3.97,2.31-2.97,5.62-2.62,8.83-1.32Z"/>
  <path class="cls-1" d="M1316.87,16.03q1.08.61,1.77,1.77c.93,3.37.33,6.93-.88,10.15-.83,1.04-1.4,1.63-2.65,2.08-4.24.45-7.36-1-10.9-3.22-2.51-1.56-4.67-2.39-7.64-1.96q-1.13,1.26-1.77,2.65.76,1.43,2.21,1.77c.77.07,1.55.13,2.32.17.46.03.92.06,1.39.09.96.06,1.91.12,2.87.17,4.37.31,7.61,1.63,10.63,4.86,2.11,2.87,2.74,5.13,2.79,8.69q.02.52.04,1.04c.03,2.97-.76,5.2-2.68,7.48-.24.19-.48.39-.72.58-.24.2-.47.4-.71.6-2.8,1.79-5.09,2.13-8.36,2.1-.37,0-.75.02-1.13.03-3.98,0-6.85-1.48-9.99-3.86-.41-.31-.83-.62-1.26-.94-.3-.23-.61-.47-.92-.71-.06.36-.13.71-.19,1.08q-.25,1.13-.69,1.57-3.26.21-4.23-.55c-.76-.95-.82-1.47-.88-2.67-.02-.37-.04-.73-.06-1.11q-.02-.57-.04-1.15c-.02-.38-.04-.76-.07-1.15q-.15-3.19.87-4.84c1.58-1.06,2.81-.99,4.64-.73,3.16.83,5.69,3.07,8.21,5.04,2.08,1.58,3.51,2.54,6.12,2.76,1.83-.27,2.79-.63,4.19-1.82.73-1.4.84-2.34.54-3.89-.61-1.75-1.46-2.91-2.96-4-3.17-1.32-6.73-1.56-10.13-1.84-2.71-.26-4.83-.92-6.98-2.68-1.79-2.19-2.66-4.57-2.76-7.39,1.04-3.36,3.24-6.43,6.18-8.39,3.28-1.67,8.02-1.38,11.53-.56,2.35.91,4.49,2.24,6.57,3.65.12-.56.24-1.11.36-1.68.26-1.01.51-1.82,1.02-2.73,1.41-.75,2.83-.7,4.36-.44Z"/>
  <path class="cls-1" d="M1278.34,9.1c.86,1.15.75,2.07.69,3.46q-.13.83-.65,1.68c-.98.57-1.9.71-3.01.91.06.23.13.47.19.71.86,3.64.78,7.22.72,10.93-.02,1.26-.03,2.53-.04,3.79q0,.46,0,.93c0,2.26.14,4.49.36,6.74.15,1.76.15,3.5.13,5.26,0,.33,0,.67,0,1.01,0,.8-.01,1.61-.02,2.41.89-.02,1.78-.03,2.67-.05q.86.05,1.74.51c.71,1.38.63,2.43.44,3.95-.98,1.28-1.55,1.7-3.09,2.21-2.54.13-4.64-.08-7.06-.88-.15-.44-.29-.87-.44-1.32q-.64.33-1.29.66c-5.71,2.84-9.99,3.38-16.36,1.99-3.12-1.1-6.39-2.9-8.07-5.85-2.21-4.8-2.41-10.48-.77-15.53,1.9-4.76,4.43-8.49,9.26-10.6,2.21-.77,4.32-1.04,6.65-1.13.4-.03.8-.06,1.22-.08,3.01-.13,4.95.45,7.61,1.85.15-2.48.29-4.95.44-7.5l-2.65-.44c-1.09-1.64-1.09-2.47-.88-4.41.95-1.26,1.51-1.71,3.05-2.05q7.53-.39,9.18.86ZM1253.63,29.19c-2.42,3-4.23,6.75-3.86,10.67.72,3,1.83,4.93,4.41,6.62,2.44,1.36,5.45,1.49,8.17,1.1,2.66-1.14,5.89-2.88,7.28-5.52.05-1.17.03-2.21-.08-3.37q-.04-.47-.08-.95c-.42-4.76-1.27-7.98-4.23-11.79-3.26-2.37-9.13.81-11.61,3.23Z"/>
  <path class="cls-1" d="M209.07,9.19c4.57.04,10.24,2.26,13.7,5.27.22.23.45.46.68.69.24.25.48.49.73.75,2.68,3.14,3.82,7.55,4.12,11.61.02.3.05.6.07.9.21,5.21-.7,11.03-3.6,15.43-.18.27-.36.55-.54.83-2.6,3.42-6.76,6.04-10.94,6.97-6.32.71-11.13-.83-16.05-4.68-4.08-3.37-6.22-7.7-7.34-12.83-.48-6.19-.65-13.1,3.55-18.14,3.23-3.14,6.56-5.62,11.16-5.95,1.7-.12,2.78-.75,4.47-.86ZM199.61,19.56c-3.11,3.96-3.04,8.39-2.65,13.24.91,4.4,3.97,7.55,7.55,10.07,2.09,1.31,3.94,1.63,6.35,1.29,3.28-.96,6.33-3.19,8.17-6.06,2.28-4.82,2.18-10.24.52-15.22-1.45-3.23-4-4.22-7.14-5.53-.75-.35-1.49-.7-2.23-1.05-4.03-1.85-7.68.44-10.57,3.26Z"/>
  <path class="cls-1" d="M670.83,78.49q1.55.22,2.57.8c1.17,1.86,1.35,3.89,1.63,6.04q.3-.27.6-.55t.81-.72c.26-.24.52-.47.79-.71,2.87-2.14,6.31-1.83,9.72-1.55,2.89.64,5.2,1.57,7.06,3.97,1.26,2.1,1.15,4.24.88,6.62-.54,1.8-1.29,3.1-2.68,4.36-3.91,1.5-8.19,1.59-12.33,1.82,1.98,1.26,3.81,2.12,6.18,2.21q1.15-.81,2.21-1.77c1.33-.31,2.13-.2,3.53,0q1.1.77,1.77,2.21c.14,1.78.1,3.52,0,5.3-1.4.7-2.87.44-4.41.44q-.44.22-.88.44c-4.35.26-9.04.55-12.66-2.23-3.13-3.98-4.84-6.34-4.55-11.45.22-1.36.53-2.64.88-3.97q-.54.02-1.08.03c-.47,0-.94.02-1.43.02-.47.01-.93.02-1.41.03-1.39-.09-2.31-.42-3.58-.97h-1.32c-.27.36-.55.73-.83,1.1-.31.36-.62.73-.94,1.1q-1.16.07-2.21,0c.02.39.04.79.05,1.19.06,1.46.12,2.93.18,4.39.03.63.05,1.27.08,1.9.04.91.08,1.82.11,2.73.02.55.05,1.1.07,1.66q-.06,1.37-.94,2.69c-1.51.37-2.9.32-4.41,0-1.25-.83-1.98-1.75-2.65-3.09-.25-1.64-.36-2.56.58-3.95q.74-.47,2.07-.47c-.07-.24-.14-.48-.22-.73-.25-1.17-.27-2.23-.27-3.43,0-.45,0-.9,0-1.37,0-.47,0-.94.01-1.42,0-.48,0-.95,0-1.44,0-1.17.01-2.35.02-3.52q-.74.03-1.49.06-1.6-.06-2.48-.94-.24-2.68.47-3.89c2.36-1.45,5.2-1.78,7.92-1.41.6.43,1.19.87,1.77,1.32.74-.28,1.48-.57,2.21-.88,1.33-.09,2.64-.04,3.97,0h1.32q.38-.44.77-.88.99-.88,2.54-1.1ZM678.88,90.2q-.86.79-.76,1.76c3.41.06,6.76-.11,10.15-.44-.26-1.47-.38-1.72-1.6-2.73-3.59-1.93-4.97-1.24-7.79,1.42Z"/>
  <path class="cls-1" d="M506.4,4.55q1.06.55,1.77,1.32.17,1.09.11,2.29c-.02.4-.03.8-.05,1.21-.02.3-.04.61-.06.92-.27.03-.55.05-.83.08q-1.04.27-1.41,1.36c-.14.4-.27.79-.41,1.2-.42.69-.85,1.37-1.3,2.04-1.49,2.29-2.84,4.64-4.19,7.01-2.08,3.64-4.2,7.24-7.17,10.24-1.42,1.7-1.35,3.45-1.36,5.59-.01.72-.03,1.44-.05,2.16,0,.35-.01.69-.02,1.05-.06,1.54-.27,3.04-.48,4.57.36.13.71.25,1.08.39q1.13.5,1.57,1.38.14,1.52,0,3.09c-2.83,2.67-7.31,2.31-10.95,2.37-1.55-.18-2.38-.55-3.62-1.48-.68-1.36-.57-2.47-.44-3.97q.69-1.05,1.77-1.77,1.66-.33,3.09-.44c.19-1.18.33-2.34.44-3.53.05-.5.1-.99.15-1.5q.28-2.93-.8-5.53c-.6-.46-1.22-.91-1.85-1.35-2.07-1.78-3.21-4.36-4.54-6.71-.66-1.13-1.39-2.2-2.13-3.29-1.75-2.71-3.29-5.9-3.8-9.12q-.22-.85-1.15-1.16c-.35-.09-.7-.17-1.07-.26-1.24-.37-1.97-.6-2.98-1.43-.58-1.49-.33-2.55.06-4.08q.52-.83,1.32-1.32c2.08-.44,4.14-.54,6.26-.55q.47-.01.95-.03,2.27-.02,3.35.73c.95,1.49,1,2.94.64,4.64-.5,4.06,2.95,8.33,5.12,11.55.25.38.5.76.76,1.16q1.26,1.95,2.78,3.7c4-4.79,7.07-10.04,10.15-15.45-.36-.34-.71-.67-1.08-1.02-1.3-1.37-1.57-1.96-1.57-3.83,1.92-4.86,7.6-3.2,11.92-2.21Z"/>
  <path class="cls-1" d="M1109.93.49c.67.3,1.34.61,2,.94.97.46,1.89.73,2.92,1.02,1.55.57,1.58.74,2.4,2.35.18.65.36,1.3.52,1.96.13.35.25.71.38,1.07.86,2.46,1.32,4.77.5,7.31q-.58.76-1.32,1.32-3,.33-4.55-.63c-.88-1.33-1.26-2.62-1.73-4.14-.47-1.32-1.11-2.2-2.11-3.17q-.92-.42-1.77-.44c-.78.78-.55,1.93-.58,3q-.03.77-.06,1.56c-.02.54-.03,1.09-.05,1.65q-.03.82-.06,1.65c-.05,1.35-.09,2.71-.14,4.06.27,0,.54-.02.82-.03,1.23-.04,2.47-.06,3.7-.08q.64-.02,1.29-.04,3.17-.04,4.61.98c.72,1.11.99,1.83,1.05,3.15-.41,1.37-.75,2.08-1.77,3.09-3.14.79-6.47.44-9.71.44.15,6.26.29,12.53.44,18.98h2.65q1.63.62,2.21,1.77.2,3.16-.44,4.36c-3.58,2.01-9.62,2.38-13.6,1.49q-2.12-.83-2.73-1.88c-.51-1.82-.65-2.69.25-4.39,1.35-1.14,2.01-.99,3.72-.91-.06-.39-.13-.78-.19-1.19-.55-3.76-.77-7.43-.77-11.23,0-.43,0-.87,0-1.31.02-2.09.09-4.08.53-6.13-.34-.05-.67-.1-1.02-.15-.44-.07-.88-.14-1.33-.21-.44-.07-.87-.13-1.32-.2-1.27-.34-1.76-.59-2.52-1.65q-.29-2.68.58-3.92c1.37-.91,2.55-.99,4.14-.97q.54,0,1.08.01c.27,0,.54.01.82.02q-.01-.42-.02-.85c-.03-1.31-.04-2.61-.06-3.92q-.02-.67-.03-1.34c-.04-4.06.42-8.38,3.21-11.54,2.47-2.07,4.91-2.99,8.04-1.85Z"/>
  <path class="cls-1" d="M1018.96,18.43c4.16,2.45,6.47,5.86,7.89,10.4,1.13,4.48.5,9.38-.24,13.88q-.16,1.01-.2,2.45.6.76,1.32,1.32.19.95.19,1.99c0,.34.02.68.03,1.03q-.22.95-.98,1.71c-3.03,1.73-7.3,1.95-10.66,1.15-1.25-.77-1.71-1.42-2.26-2.79,0-1.75.22-2.42,1.43-3.7,1.3-.77,1.94-.89,3.42-.72.5-2.85.57-5.67.61-8.55.02-.48.03-.96.05-1.45.04-3.22-.45-5.5-2.42-8.09-1.27-1.11-1.78-1.35-3.46-1.24-1.66.43-2.4,1.06-3.63,2.24-.38.36-.76.71-1.15,1.08-.79.78-1.56,1.56-2.33,2.37q-.91.86-2.23.86c.05,1.67.11,3.35.17,5.02.01.47.03.94.04,1.42.1,2.6.33,5.05.92,7.59.33,1.61.57,3.34.2,4.95q-.72.99-1.77,1.77c-3.75.45-7-.72-10.15-2.65v-3.97c1.42-.71,2.84-.47,4.41-.44q-.1-.74-.19-1.5c-.78-6.57-.78-13.08-.69-19.69l-3.53-.44v1.32h-.88c-.14-.36-.27-.71-.41-1.08q-.36-1.08-.91-1.57-.26-3.21.62-4.3c1.8-.88,3.56-.75,5.54-.72.39,0,.79-.01,1.2-.02,2.15,0,3.75.04,5.45,1.51q.58,1.41.88,2.65.27-.26.54-.52c3.68-3.37,8.29-5.38,13.2-3.26Z"/>
  <path class="cls-1" d="M1231.67,17.79c3.23,2.79,4.65,6.96,4.96,11.13.1,5.07,0,11.63-2.31,16.24.34.05.67.09,1.02.14q1.79.46,2.51,1.63c.18,1.2.25,2.34,0,3.53-1.13,1.49-2.37,1.74-4.14,2.08-2.49.28-5.02.32-7.17-1.06-.77-1.29-1.02-2.17-1.05-3.67.2-.3.4-.6.6-.9,1.04-1.87,1.3-3.79,1.66-5.89.07-.41.15-.81.23-1.23,1.06-5.85,1.65-10.24-.72-15.82-3.39.24-6.12,1.01-8.44,3.61-1.22,1.53-2.29,3.16-3.35,4.81q-.57.85-1.46,1.73c-.09,1.18-.13,2.31-.14,3.48-.01.71-.02,1.42-.03,2.13-.01,1.12-.02,2.24-.03,3.37,0,1.08-.03,2.16-.05,3.25,0,.33,0,.67,0,1.01-.04,1.99-.3,3.27-1.52,4.86-1.74,1.25-3.42.88-5.46.66-1.36-.25-2.3-.65-3.37-1.54-.5-.99-.5-1.55-.5-2.65,0-.31,0-.62,0-.94q.06-.83.5-1.71h3.09c0-.34,0-.69,0-1.04-.04-6.73-.02-13.43.45-20.15q-.72.02-1.45.04c-1.79-.05-2.76-.47-4.29-1.37-.02-.64-.04-1.29-.06-1.93q-.02-.54-.03-1.09.09-.96.97-1.84c1.74-.21,3.49-.16,5.24-.17.49-.01.97-.02,1.47-.03.47,0,.94,0,1.42,0,.43,0,.86,0,1.3-.01,1.46.27,1.99.86,2.92,1.98.23-.12.47-.24.71-.36,1.28-.64,2.56-1.26,3.84-1.88.48-.23.96-.47,1.46-.71,3.68-1.45,7.73-1.7,11.21.29Z"/>
  <path class="cls-1" d="M1192.01,21.96c3.95,3.59,5.48,9.66,5.89,14.82-.29,1.76-1.08,2.42-2.43,3.53q.66.22,1.32.44c1.12,3.19,1.98,6.87.88,10.15-1.75,1-2.93.89-4.86.44-.3-.1-.6-.2-.91-.3q-.89-.23-1.76.29c-1.8.63-3.46.61-5.36.6q-.56,0-1.14,0c-5.01-.1-9.12-1.57-12.94-4.91-2.65-2.76-3.54-5.77-3.63-9.54.16-4.84,1.08-9.26,4.33-12.99.36-.31.73-.62,1.1-.94.3-.3.6-.6.91-.91,5.45-3.59,13.02-4.38,18.58-.66ZM1175.56,29.06q-1.35,2.16-1.72,4.63c.4-.03.79-.06,1.2-.1,5.19-.37,10.37-.39,15.57-.34q-.87-3.08-2.62-5.71c-.21-.24-.43-.48-.65-.73-1.37-1.21-2.75-1.77-4.59-1.7-2.76.54-5.38,1.78-7.19,3.95ZM1174.73,39.42c1.07,2.29,2.54,3.4,4.88,4.3,3.55,1.07,7.07,1.07,10.38-.66q.71-.53.86-1.48l.21-.85c.44-.15.87-.29,1.32-.44-2.52-.51-5.03-.59-7.59-.69q-.65-.03-1.31-.06c-2.92-.12-5.84-.16-8.76-.14Z"/>
  <path class="cls-1" d="M635.62,6.16c1.63.11,3.25.16,4.89.14q.53,0,1.07-.02c.68-.01,1.37-.03,2.05-.06,2.13-.04,3.55.27,5.35,1.42.53,1.07.5,1.76.5,2.95,0,.41,0,.82,0,1.24,0,.43,0,.86,0,1.3,0,.43,0,.85,0,1.29,0,.41,0,.82,0,1.24,0,.38,0,.75,0,1.14q-.06.99-.5,2.31c-1.36.68-2.47.57-3.97.44-1.04-.82-1.62-1.47-2.21-2.65v-3.53h-9.27q.22,1.97.44,3.97c.03.74.06,1.49.06,2.23,0,.39,0,.78,0,1.18,0,.41,0,.82,0,1.24,0,.44,0,.87,0,1.32,0,.92,0,1.84,0,2.76,0,1.38,0,2.76,0,4.14,0,5.29-.14,10.55-.5,15.83h1.77c.12,1.81-.22,2.92-1.05,4.52-.19.38-.39.77-.59,1.17q-.57.93-1.45,1.37c-2.62.24-5.48.09-7.95-.88-1.08-1.62-1.2-2.97-.88-4.86q.8-1.1,1.77-1.77h1.32c0-.56-.02-1.11-.03-1.68,0-1.52.08-3,.25-4.51.26-2.78.28-5.54.26-8.33q0-.78,0-1.58c0-1.65,0-3.3-.01-4.95,0-1.13,0-2.25,0-3.38,0-2.75-.01-5.49-.02-8.24-.57.06-1.15.13-1.74.19-.76.08-1.52.17-2.29.25-.38.04-.76.08-1.14.13-1.97.21-3.88.37-5.86.31-.05.31-.11.62-.16.93-.07.4-.15.8-.22,1.22-.07.4-.14.8-.22,1.21q-.28,1.05-1.16,1.93-2.74.25-3.82-.51c-1.26-1.71-1.24-4.05-1.48-6.11-.04-.32-.08-.64-.12-.97-.08-1.3.02-1.98.79-3.04,1.41-1.1,2.78-1.34,4.51-1.59.33-.05.66-.11,1-.16,6.83-1.04,13.74-1.09,20.62-.57Z"/>
  <path class="cls-1" d="M819.82,81.11c1.71.32,2.39.68,3.53,2.01.51,1.79.57,3.4.17,5.21-1.04,1.66-2.29,2.56-4.14,3.17q.45.25.92.5t1.21.68c.39.22.79.44,1.19.67,1.25.91,1.79,1.59,2.42,3,.48,3.37.31,6.9-1.77,9.71-2.73,2.32-5.99,2.3-9.38,2.32-.36,0-.71.02-1.08.03-2.62.02-4.76-.49-7.2-1.46-.15.29-.31.58-.47.88q-.86.88-2.4,1.08-1.55-.19-2.28-.76c-1.72-2.23-1.3-6.92-1.03-9.59,1.02-1.02,1.26-1.03,2.65-1.08,2.17.04,3.71.79,5.58,1.83,2.36,1.29,4.24,1.57,6.92,1.51.33,0,.65,0,.99-.01.8-.01,1.6-.03,2.4-.04.29-.58.58-1.17.88-1.77-2.27-1.36-4.78-1.34-7.35-1.39-.45,0-.9-.02-1.37-.03-.93-.01-1.87-.02-2.8-.02-2.98-.07-5.22-.44-7.46-2.54-1.43-2.34-1.2-5.3-.88-7.95.77-1.95,2.36-2.8,4.19-3.67,4.56-1.81,8.41-1.31,13.02.14q.46-.55.94-1.1,1.27-1.1,2.59-1.35ZM806.13,90.19c1.34.9,1.59.99,3.1.97.33,0,.67,0,1.01,0,.35,0,.69-.01,1.05-.02q.53,0,1.07-.01c.87-.01,1.74-.03,2.6-.04-1.15-.77-1.77-1.07-3.06-1.38-.3-.07-.59-.15-.89-.22-1.89-.34-3.16-.04-4.87.72Z"/>
  <path class="cls-1" d="M716.3,80.26q1.55.22,2.62.86c1.03,1.69.97,3.18.69,5.1-.67,1.81-1.32,3.13-3.09,3.97-2.8.43-5.31-.3-8-1.03-1.69-.4-3.08-.46-4.8-.3l-.88.88c2,1.59,3.46,1.81,5.99,1.9,4.12.28,7.4,1.33,10.35,4.28,1.45,2.24,1.09,4.95.88,7.5-.57,1.73-.95,2.37-2.4,3.45-4.64,2.15-10.72.86-15.54-.17-1.08-.2-2.07-.24-3.16-.22q-.52,0-1.06.01c-.26,0-.52.01-.79.02-.73-1.46-.4-3.05-.3-4.64.02-.35.03-.69.05-1.05q.15-2.6,1.14-3.58.94-.28,1.77-.44c-.34-.25-.67-.49-1.02-.74-1.7-1.46-2.43-2.55-2.7-4.8,0-.57,0-1.13,0-1.71,0-.56-.02-1.13-.03-1.71.25-1.89.77-2.82,1.98-4.28q.88-.63,1.77-1.02c.29-.13.58-.27.88-.41,3.71-1.41,7.41-.81,11.18.08q1.24.16,2.12-.83t2.37-1.14ZM702.4,97.69c1.41,2.09,2.47,3.25,5.02,3.75,2.1.27,3.94.17,6.01-.22v-1.77c-1.59-1.53-3.2-1.83-5.35-1.81q-.5,0-1.01,0c-.34,0-.69,0-1.04.01-.35,0-.7,0-1.06,0-.86,0-1.72.01-2.58.02Z"/>
  <path class="cls-1" d="M627.35,80.04q2.4-.23,3.53,0,.77.67,1.32,1.32c.48-.22.97-.44,1.46-.66,3.38-1.24,6.38-1,9.71.3,3.09,1.44,4.91,2.52,6.18,5.82.6,1.86,1.04,3.62,1.19,5.57q.07.86.14,1.74c-.05,2.46-.98,4.29-2.61,6.1-4.05,3.53-9.73,2.75-14.75,2.75-.87,4.52-1.75,9.03-2.65,13.68-.73-.15-1.46-.29-2.21-.44-1.99-7.34-3.01-15.09-2.69-22.69.05-1.36.09-2.71.12-4.07.03-1.01.06-2.03.09-3.04.01-.48.03-.97.04-1.46.02-.45.03-.9.05-1.36.01-.4.03-.8.04-1.22q.14-1.03,1.02-2.35ZM634.83,87.93c-1.01.8-1.99,1.55-3.06,2.26q-.16,1.08-.08,2.26c.01.4.02.8.04,1.22.02.31.03.62.05.93,2.9,1.66,5.98,1.72,9.27,1.32q1.67-.79,2.65-2.26c0-1.94-.3-3.57-1.32-5.24-2.48-1.76-5.03-2.51-7.53-.5Z"/>
  <path class="cls-1" d="M741.68,84.01c2.2,1.14,3.74,2.63,4.86,4.86q.47,5.28-.46,7.06c-1.76,1.74-3.33,1.86-5.71,2-.3.02-.6.04-.92.06-.97.06-1.93.12-2.9.18-.66.04-1.31.08-1.97.12-1.61.1-3.21.2-4.82.29,2.09,1.76,3.81,2.71,6.62,2.59q1.41-.35,2.81-1.3c1.8-1.09,3.05-1.13,5.13-.86,1.26.95,1.71,1.51,2.07,3.07.03.46.06.93.09,1.4.04.47.07.93.11,1.41q-.05,1.18-.93,2.07-.83.14-1.82.19c-1.44.12-2.59.37-3.92.94-3.93,1.56-7.67.36-11.48-1.13-3.05-1.41-4.65-4.17-6.18-7.06-1.02-2.82-.93-7.07-.13-9.94,3.99-7.28,12.35-7.87,19.56-5.95ZM729,92.04c-.18.26-.37.52-.56.79,2.75.04,5.43-.08,8.17-.39.36-.03.71-.07,1.08-.11.89-.1,1.78-.24,2.67-.39.15-.29.29-.58.44-.88-1.73-2.08-3.57-2.43-6.15-2.87-2.38.39-4.18,1.98-5.65,3.84Z"/>
  <path class="cls-1" d="M1140.86,19.83c.71.32,1.4.68,2.08,1.05.57.17,1.14.33,1.71.47q.68.2,1.38.41c.74,1.48.54,3.14.55,4.77,0,.36.02.71.03,1.08.01,2.09-.09,3.49-1.46,5.18-1.4.7-2.89.57-4.41.44-1.24-.45-1.62-.59-2.21-1.77-.03-.68-.04-1.36-.03-2.04,0-.36,0-.72.01-1.09,0-.28.01-.55.02-.84-.87-.29-1.75-.58-2.65-.88-.46.65-.92,1.31-1.38,1.96-.26.36-.51.73-.78,1.1-.31.45-.62.89-.93,1.35-.22.24-.45.49-.68.74-2.83,3.41-2.42,7.58-2.49,11.79-.03,1.16-.06,2.31-.09,3.47-.02.72-.04,1.43-.05,2.15q-.07,2.37-.79,3.48c-1.37.81-2.93.65-4.48.64-.34,0-.67.02-1.02.03-1.66,0-2.5-.03-3.86-1.03-.9-1.3-.92-2.05-.66-3.6q.72-1.02,1.77-1.77,1.31-.22,2.65-.44c.29-6.56.58-13.11.88-19.86h-2.65c-1.07-1.07-1.01-1.4-1.02-2.87q-.01-.53-.02-1.06c.05-.3.11-.61.16-.92,1.67-1.11,3.13-1.11,5.08-1.21.34-.02.68-.05,1.03-.07q2.55-.15,4.04.85c.37-.29.74-.57,1.12-.87,2.54-1.69,6.3-1.39,9.16-.62Z"/>
  <path class="cls-1" d="M138,4.44c.51-.01,1.02-.02,1.54-.03q1.35.14,2.09.7c.92,1.21.8,2.21.75,3.69-.26,1.74-1.05,3.04-1.95,4.53-5.22,9.27-9.33,21.22-6.87,31.87.87,2.78,2.29,4.77,4.05,7.04,1.42,1.89,2.03,3.34,2.11,5.7-.17,1.05-.47,1.78-1.03,2.69-1.2.6-2.19.52-3.53.52-.47,0-.95.01-1.43.02q-1.21-.1-2.1-.98c.05-.53.09-1.06.14-1.6.03-1.21,0-1.75-.74-2.72-.26-.26-.53-.52-.8-.79-3.44-3.51-4.38-9.32-4.41-14.07.16-10.55,3.33-21.95,9.35-30.71-.35.02-.69.04-1.05.06q-1.16-.06-2.04-.94-.19-1.52,0-3.09,1.05-.83,2.21-1.32c1.25-.62,2.33-.53,3.72-.55Z"/>
  <path class="cls-1" d="M242.43,4.55q.88.88,1.02,2.4c-.15,1.76-.32,1.75-1.46,2.9.18,1.82.65,3.32,1.4,4.98.19.43.38.87.58,1.31.2.46.4.91.61,1.38,3.33,7.81,5.33,17.06,2.7,25.44-.64,1.59-1.34,3.16-2.03,4.73-.99,2.32-1.33,4.21-1.04,6.75,0,.29-.01.58-.02.88-1.97,1.31-3.87,1.11-6.18.88-1.38-.61-1.98-.87-2.65-2.21-.31-2.52.32-3.89,1.57-5.97,3.86-6.62,4.71-13.13,2.93-20.56-.98-3.41-2.37-6.7-3.71-9.99-.76-2.16-.89-4.24-.93-6.52-.02-.57-.03-1.14-.05-1.72.22-1.83.66-2.51,1.95-3.79,1.74-.99,3.31-1.03,5.3-.88Z"/>
  <path class="cls-1" d="M785.49,73.73c1.11.81,1.31,1.45,1.67,2.77.06,1.17.08,2.28.06,3.45,0,.31,0,.61-.01.93-.01.75-.03,1.5-.04,2.25.26.02.52.03.79.05q3.9.32,5.39,1.72c.23,1.37.32,2.2-.51,3.36-1.14.85-2.15.94-3.55,1.14q-.72.1-1.45.21c-.37.05-.73.1-1.11.15.06,1.26.13,2.52.19,3.78.02.35.03.71.05,1.07.11,2.09.31,4.12.64,6.19q.79.35,1.77.44.4-.31.8-.63c1.39-.99,2.39-.87,4.06-.69,1.15.81,1.31,1.28,1.77,2.65.05.67.08,1.34.08,2.01,0,.35.01.69.02,1.05q-.1.91-.98,1.79c-2.2.52-4.4.54-6.65.55-.35,0-.7.02-1.06.03-2.06.01-3.46-.08-5.1-1.46-1.35-1.82-1.53-3.28-1.65-5.51q-.03-.47-.05-.94c-.05-.98-.1-1.97-.15-2.95-.04-.67-.07-1.34-.11-2.01-.09-1.64-.17-3.28-.25-4.91q-.5.02-1.02.05c-.44.01-.88.02-1.33.04-.44.02-.87.03-1.32.05q-1.19-.13-2-.72c-.8-1.15-.68-2.02-.52-3.39.69-1.47,1.23-1.73,2.76-2.32,1.63-.33,3.09-.4,4.75-.33v-5.3q-3.06-.22-6.18-.44c-.15-.73-.29-1.46-.44-2.21,3.36-2.08,6.79-3.15,10.69-1.89Z"/>
  <path class="cls-1" d="M754.24,83.46c.51-.01,1.02-.02,1.54-.03q1.35.14,2.2.81c.16.22.32.43.48.66.44-.22.87-.44,1.32-.66,1.77-.74,3.4-1.09,5.3-.66,2.94,1.34,4.8,3.28,6.18,6.18.46,1.37.46,2.19.39,3.61-.01.45-.03.89-.04,1.35-.03.94-.07,1.88-.12,2.81q-.16,2.37.81,4.41.8.56,2.05,1.05-.22,2.86-1.18,3.84c-1.3.72-2.22.75-3.71.74q-.69,0-1.39.01-1.23-.18-2.04-.75c-.85-1.25-.63-2.38-.51-3.84.15-.28.3-.56.45-.86,1.3-2.76-.29-6.46-1.23-9.14-.61-1.16-1.21-1.67-2.31-2.36-.58.51-1.16,1.01-1.74,1.52-.32.28-.65.56-.98.85-1.65,1.45-1.45,2.69-1.62,4.86-.06,1.14-.08,2.24-.06,3.38,0,.3.01.59.02.9.02.85.05,1.7.08,2.55q-.11,1.39-.67,2.23c-1.49.93-3.06.73-4.75.48q-3.34-1.13-4.41-2.21-.17-1.27,0-2.65c1.58-1.35,2.27-1.32,4.41-1.32v-12.36h-2.65q-.88-.88-1.02-2.18.14-1.35.74-2.15c1.49-1.09,2.62-1.05,4.44-1.08Z"/>
  <path class="cls-1" d="M1155.66,20.3c.31-.01.63-.03.95-.04,1.58-.02,2.58.13,3.96.9,1.12,1.28,1.28,2,1.35,3.69-.1.89-.23,1.77-.39,2.65-.63,4.23-.69,8.49-.79,12.76-.01.56-.03,1.12-.04,1.7-.01.51-.02,1.02-.03,1.54q-.08,1.21-.52,2.09.74.08,1.49.17,1.6.28,2.48,1.16.25,3.2-.55,4.25c-2.15,1.69-5.19,2.75-7.83,3.26-1.35-.31-1.98-.64-2.92-1.65-.77-1.26-.75-2.02-.71-3.49.01-.51.02-1.02.04-1.54q.03-.84.07-1.71c.01-.3.02-.6.04-.91.08-1.97.18-3.94.29-5.91.06-1.02.11-2.05.16-3.07.18-3.25.42-6.38,1.27-9.53-.49-.05-.98-.11-1.49-.17q-1.6-.28-2.48-1.16-.25-2.75.61-3.92c1.62-1.12,3.14-1.05,5.05-1.08Z"/>
  <path class="cls-1" d="M536.42,15.15c.91.7,1.26,1.19,1.77,2.21.05,1.36.06,2.71.06,4.06,0,.41,0,.82,0,1.25-.03,4.66-.27,9.32-.52,13.97-.09,1.68-.18,3.37-.26,5.05q-.03.57-.07,1.16-.16,1.88.36,3.64.2,3.2-.46,4.3c-1.32.86-2.65.75-4.17.73-.3,0-.6.01-.91.02-1.28,0-2.19-.03-3.26-.76-.81-1.29-.65-2.37-.47-3.84.29-.23.59-.47.89-.71,1.38-1.67,1.02-3.33.93-5.42-.1-4.38.07-8.69.39-13.05.02-.3.04-.6.06-.91.12-1.69.25-3.39.38-5.08-.42-.05-.84-.11-1.27-.17q-1.38-.28-2.26-1.16-.07-2.28.44-3.53c2.48-2,5.34-2.43,8.39-1.77Z"/>
  <path class="cls-12" d="M801.27,177.98c2.13,1.21,3.87,2.63,4.87,4.91.6,2.9-.23,5.48-1.77,7.95-1.25,1.73-2.35,2.52-4.47,2.89q-4.19.18-5.93-1.12c-1.66-2.04-2.71-3.79-3.03-6.43.38-2.97,1.62-5.15,3.72-7.26,2.21-1.21,4.2-2.01,6.61-.94Z"/>
  <path class="cls-1" d="M534.41,3.12c.34,0,.67,0,1.02,0,1.59.19,2.5.69,3.53,1.91.99,2.32.87,4.42,0,6.76q-1.25,1.87-2.54,2.48c-2.04.35-3.49.28-5.3-.77-1.32-2.15-1.45-4.24-1.32-6.73.86-2.48,1.92-3.66,4.61-3.64Z"/>
  <path class="cls-11" d="M569.09,362.55c-7.86,7.58-20.45,11.53-30.47,15.54-.89.36-1.78.72-2.67,1.08q-8.35,3.39-10.12,2.8c.36-.17.72-.33,1.09-.51q12.69-5.89,25.16-12.26c4.02-2.15,8.02-4.25,12.27-5.91.33-.13.66-.26,1-.4q2.25-.85,3.75-.35Z"/>
  <path class="cls-1" d="M1156.16,9.3q.58-.02,1.17-.03c1.27.17,1.62.47,2.39,1.47.62,1.24.55,2.15.44,3.53-.55,1.21-1.02,1.97-2.07,2.79-2.17.65-3.88.64-5.88-.36-1.02-1.27-1.17-2.15-1.07-3.77.3-1.35.98-2.13,1.96-3.08,1.08-.54,1.85-.53,3.06-.55Z"/>
  <path class="cls-3" d="M1272.28,413.31c1.46.28,2.43.8,3.65,1.65.36.25.71.49,1.08.74.37.26.74.52,1.12.78.36.25.72.5,1.1.76,2.29,1.58,4.53,3.21,6.74,4.9l-.44.88c-.44-.24-.88-.48-1.34-.73-.59-.32-1.19-.64-1.78-.96-.29-.16-.58-.31-.88-.48-1.4-.75-2.78-1.45-4.27-2.02-1.54-.71-2.32-1.4-3.41-2.69-.3-.35-.6-.69-.91-1.05q-.66-.91-.66-1.79Z"/>
  <path class="cls-16" d="M647.22,329l.88.44c-1.24.79-2.48,1.57-3.72,2.35-.35.22-.69.44-1.05.67-3.07,1.9-6.1,3.45-9.8,3.17v-.88c1.59-.68,3.19-1.35,4.78-2.03.81-.34,1.61-.68,2.42-1.03.51-.22,1.02-.43,1.55-.66q.7-.3,1.42-.6c.43-.18.86-.36,1.3-.55.4-.18.8-.36,1.22-.54.33-.11.65-.23.99-.34Z"/>
  <path class="cls-13" d="M535.98,378.88c-1.62,1.08-3.25,1.64-5.08,2.29-.34.13-.68.25-1.03.38-.33.12-.66.23-.99.35-.3.11-.6.22-.91.33q-.82.18-2.14-.26c1.08-.51,2.15-1.01,3.23-1.52.3-.14.61-.29.92-.44q3.65-1.71,6-1.14Z"/>
  <path class="cls-7" d="M1256.39,384.18v2.65q-2.15-.77-2.65-1.77,1.66-.88,2.65-.88Z"/>
  <path class="cls-9" d="M530.24,379.77c.29.44.58.87.88,1.32-.63.23-1.27.46-1.9.69q-.53.19-1.07.39-1,.25-2.32-.19l4.41-2.21Z"/>
  <path class="cls-5" d="M869.26,129.48q0,1.32-.68,2.03c-.29.23-.57.46-.87.7-.29.23-.57.47-.87.71-.22.18-.45.35-.68.53.6-1.95,1.44-2.8,3.09-3.97Z"/>
  <path class="cls-14" d="M1282.43,419.94c1.17.73,2.33,1.46,3.53,2.21-.15.29-.29.58-.44.88q-1.53-.87-3.09-1.77v-1.32Z"/>
  <path class="cls-2" d="M1277.14,332.53q1.09.22,2.21.44-.44.66-.88,1.32c-.44-.15-.87-.29-1.32-.44v-1.32Z"/>
  <path class="cls-4" d="M583.65,269.85c-1.72,1.15-3.3.95-5.3.88v-.44c1.79-.43,3.46-.48,5.3-.44Z"/>
  <path class="cls-10" d="M524.94,382.41l.88.44-.88-.44Z"/>
</svg>